<svg width="248" height="167" viewBox="0 0 248 167" fill="none" xmlns="http://www.w3.org/2000/svg">
<path opacity="0.2" d="M148 18.5L140.87 41.6775C140.618 42.4952 140.111 43.2106 139.422 43.7186C138.734 44.2266 137.901 44.5005 137.045 44.5H113.018C112.148 44.5004 111.302 44.2175 110.608 43.6943C109.914 43.171 109.409 42.4358 109.17 41.6L102.573 18.5H148Z" fill="#A7A5AF"/>
<path d="M116 54.5C116 55.2911 115.765 56.0645 115.326 56.7223C114.886 57.3801 114.262 57.8928 113.531 58.1955C112.8 58.4983 111.996 58.5775 111.22 58.4231C110.444 58.2688 109.731 57.8878 109.172 57.3284C108.612 56.769 108.231 56.0563 108.077 55.2804C107.923 54.5044 108.002 53.7002 108.304 52.9693C108.607 52.2384 109.12 51.6137 109.778 51.1741C110.436 50.7346 111.209 50.5 112 50.5C113.061 50.5 114.078 50.9214 114.828 51.6716C115.579 52.4217 116 53.4391 116 54.5ZM138 50.5C137.209 50.5 136.436 50.7346 135.778 51.1741C135.12 51.6137 134.607 52.2384 134.304 52.9693C134.002 53.7002 133.923 54.5044 134.077 55.2804C134.231 56.0563 134.612 56.769 135.172 57.3284C135.731 57.8878 136.444 58.2688 137.22 58.4231C137.996 58.5775 138.8 58.4983 139.531 58.1955C140.262 57.8928 140.886 57.3801 141.326 56.7223C141.765 56.0645 142 55.2911 142 54.5C142 53.4391 141.579 52.4217 140.828 51.6716C140.078 50.9214 139.061 50.5 138 50.5ZM149.913 19.0875L142.78 42.265C142.406 43.4937 141.647 44.5692 140.614 45.3321C139.581 46.0949 138.329 46.5045 137.045 46.5H113.018C111.715 46.4951 110.449 46.0684 109.409 45.2838C108.37 44.4991 107.612 43.3988 107.25 42.1475L98.205 10.5H94C93.4696 10.5 92.9609 10.2893 92.5858 9.91421C92.2107 9.53914 92 9.03043 92 8.5C92 7.96957 92.2107 7.46086 92.5858 7.08579C92.9609 6.71071 93.4696 6.5 94 6.5H98.205C99.0735 6.50288 99.9178 6.78697 100.611 7.30974C101.305 7.83252 101.811 8.56586 102.053 9.4L104.08 16.5H148C148.313 16.4999 148.622 16.5732 148.901 16.7141C149.181 16.855 149.423 17.0595 149.609 17.3112C149.795 17.5629 149.919 17.8547 149.972 18.1633C150.025 18.4718 150.004 18.7883 149.913 19.0875ZM145.293 20.5H105.223L111.095 41.05C111.214 41.4677 111.467 41.8352 111.814 42.0968C112.16 42.3584 112.583 42.4999 113.018 42.5H137.045C137.473 42.5002 137.89 42.363 138.234 42.1088C138.578 41.8545 138.832 41.4966 138.958 41.0875L145.293 20.5Z" fill="#A7A5AF"/>
<path d="M45.3132 102.5V95.64L40.2132 87.8H42.8932L46.4332 93.6L49.9732 87.8H52.6332L47.5532 95.68V102.5H45.3132ZM55.8426 102.7C54.8826 102.7 54.0359 102.487 53.3026 102.06C52.5826 101.633 52.0226 101.053 51.6226 100.32C51.2226 99.5867 51.0226 98.7733 51.0226 97.88C51.0226 97 51.2159 96.2 51.6026 95.48C52.0026 94.7467 52.5626 94.1667 53.2826 93.74C54.0026 93.3 54.8559 93.08 55.8426 93.08C56.8292 93.08 57.6826 93.3 58.4026 93.74C59.1226 94.1667 59.6759 94.7467 60.0626 95.48C60.4492 96.2 60.6426 97 60.6426 97.88C60.6426 98.7733 60.4426 99.5867 60.0426 100.32C59.6559 101.053 59.1026 101.633 58.3826 102.06C57.6626 102.487 56.8159 102.7 55.8426 102.7ZM55.9026 100.94C56.7026 100.94 57.3159 100.647 57.7426 100.06C58.1826 99.4733 58.4026 98.76 58.4026 97.92C58.4026 97.3467 58.2959 96.8333 58.0826 96.38C57.8692 95.9133 57.5626 95.54 57.1626 95.26C56.7759 94.98 56.3159 94.84 55.7826 94.84C55.2626 94.84 54.8159 94.98 54.4426 95.26C54.0692 95.54 53.7759 95.9133 53.5626 96.38C53.3626 96.8333 53.2626 97.3467 53.2626 97.92C53.2626 98.48 53.3759 98.9933 53.6026 99.46C53.8292 99.9133 54.1359 100.273 54.5226 100.54C54.9226 100.807 55.3826 100.94 55.9026 100.94ZM65.9926 102.7C65.0726 102.7 64.3726 102.507 63.8926 102.12C63.4126 101.733 63.0859 101.22 62.9126 100.58C62.7526 99.94 62.6726 99.2333 62.6726 98.46V93.32H64.8326V97.92C64.8326 98.6267 64.8726 99.2 64.9526 99.64C65.0459 100.08 65.2192 100.407 65.4726 100.62C65.7392 100.82 66.1326 100.92 66.6526 100.92C67.0259 100.92 67.3792 100.82 67.7126 100.62C68.0592 100.407 68.3459 100.12 68.5726 99.76C68.7992 99.3867 68.9126 98.9733 68.9126 98.52V93.32H71.0526V102.5H69.2926L69.0526 101.16C68.7192 101.667 68.3059 102.053 67.8126 102.32C67.3192 102.573 66.7126 102.7 65.9926 102.7ZM73.612 102.5V93.32H75.772V95.12C75.9853 94.52 76.3253 94.0333 76.792 93.66C77.272 93.2733 77.8253 93.08 78.452 93.08C78.8786 93.08 79.172 93.12 79.332 93.2L79.032 95.38C78.912 95.3 78.652 95.26 78.252 95.26C77.9186 95.26 77.5586 95.3333 77.172 95.48C76.7853 95.6267 76.452 95.8867 76.172 96.26C75.9053 96.62 75.772 97.1267 75.772 97.78V102.5H73.612ZM92.5818 102.64C91.4085 102.64 90.3618 102.44 89.4418 102.04C88.5351 101.64 87.7618 101.093 87.1218 100.4C86.4951 99.6933 86.0151 98.8933 85.6818 98C85.3618 97.0933 85.2018 96.1333 85.2018 95.12C85.2018 94.0133 85.3818 93 85.7418 92.08C86.1151 91.16 86.6351 90.3667 87.3018 89.7C87.9685 89.02 88.7618 88.4933 89.6818 88.12C90.6018 87.7467 91.6151 87.56 92.7218 87.56C93.4418 87.56 94.0818 87.6333 94.6418 87.78C95.2018 87.9267 95.6618 88.0933 96.0218 88.28C96.3818 88.4533 96.6085 88.5933 96.7018 88.7L95.7218 90.7C95.3618 90.38 94.9151 90.12 94.3818 89.92C93.8618 89.72 93.2485 89.62 92.5418 89.62C91.6218 89.62 90.7885 89.8467 90.0418 90.3C89.3085 90.7533 88.7218 91.3933 88.2818 92.22C87.8551 93.0467 87.6418 94.0267 87.6418 95.16C87.6418 96.16 87.8285 97.0733 88.2018 97.9C88.5751 98.7133 89.1218 99.3667 89.8418 99.86C90.5751 100.353 91.4618 100.6 92.5018 100.6C93.0751 100.6 93.6351 100.527 94.1818 100.38C94.7418 100.22 95.3151 99.96 95.9018 99.6L96.5618 101.5C96.3885 101.66 96.0951 101.833 95.6818 102.02C95.2685 102.193 94.7885 102.34 94.2418 102.46C93.7085 102.58 93.1551 102.64 92.5818 102.64ZM101.931 102.7C101.118 102.7 100.358 102.507 99.6512 102.12C98.9578 101.733 98.3978 101.18 97.9712 100.46C97.5445 99.74 97.3312 98.88 97.3312 97.88C97.3312 96.92 97.5112 96.08 97.8712 95.36C98.2445 94.64 98.7645 94.08 99.4312 93.68C100.111 93.28 100.918 93.08 101.851 93.08C102.411 93.08 102.918 93.18 103.371 93.38C103.838 93.5667 104.225 93.8 104.531 94.08C104.851 94.3467 105.065 94.6067 105.171 94.86L105.211 93.32H107.271V102.5H105.231L105.191 100.88C105.058 101.173 104.831 101.46 104.511 101.74C104.205 102.02 103.831 102.253 103.391 102.44C102.951 102.613 102.465 102.7 101.931 102.7ZM102.291 100.9C102.785 100.9 103.231 100.787 103.631 100.56C104.045 100.32 104.371 99.9867 104.611 99.56C104.865 99.1333 104.991 98.6267 104.991 98.04V97.9C104.991 97.3 104.865 96.78 104.611 96.34C104.371 95.8867 104.045 95.54 103.631 95.3C103.231 95.0467 102.785 94.92 102.291 94.92C101.398 94.92 100.725 95.2067 100.271 95.78C99.8312 96.3533 99.6112 97.06 99.6112 97.9C99.6112 98.7533 99.8312 99.4667 100.271 100.04C100.725 100.613 101.398 100.9 102.291 100.9ZM109.842 102.5V93.32H112.002V95.12C112.216 94.52 112.556 94.0333 113.022 93.66C113.502 93.2733 114.056 93.08 114.682 93.08C115.109 93.08 115.402 93.12 115.562 93.2L115.262 95.38C115.142 95.3 114.882 95.26 114.482 95.26C114.149 95.26 113.789 95.3333 113.402 95.48C113.016 95.6267 112.682 95.8867 112.402 96.26C112.136 96.62 112.002 97.1267 112.002 97.78V102.5H109.842ZM117.89 102.5V95.08H116.27V93.32H117.89V89.58L120.07 89.1V93.32H122.19V95.08H120.07V102.5H117.89ZM129.248 102.5V87.8H131.488V102.5H129.248ZM137.301 102.7C136.874 102.7 136.427 102.66 135.961 102.58C135.507 102.5 135.087 102.4 134.701 102.28C134.327 102.147 134.041 102.007 133.841 101.86L134.561 100.16C134.787 100.32 135.127 100.5 135.581 100.7C136.047 100.9 136.621 101 137.301 101C137.901 101 138.307 100.913 138.521 100.74C138.734 100.553 138.841 100.34 138.841 100.1C138.841 99.8467 138.747 99.6533 138.561 99.52C138.387 99.3733 138.134 99.24 137.801 99.12C137.467 99 137.074 98.8533 136.621 98.68C136.181 98.4933 135.761 98.28 135.361 98.04C134.961 97.7867 134.634 97.48 134.381 97.12C134.141 96.7467 134.021 96.2933 134.021 95.76C134.021 94.8933 134.354 94.2333 135.021 93.78C135.687 93.3133 136.567 93.08 137.661 93.08C138.221 93.08 138.761 93.14 139.281 93.26C139.814 93.38 140.214 93.5333 140.481 93.72L139.701 95.44C139.541 95.28 139.274 95.1333 138.901 95C138.541 94.8667 138.107 94.8 137.601 94.8C136.654 94.8 136.181 95.0867 136.181 95.66C136.181 95.94 136.281 96.1667 136.481 96.34C136.694 96.5 136.967 96.64 137.301 96.76C137.647 96.8667 138.021 97 138.421 97.16C139.234 97.48 139.854 97.8533 140.281 98.28C140.721 98.6933 140.941 99.2467 140.941 99.94C140.941 100.567 140.774 101.087 140.441 101.5C140.107 101.913 139.661 102.22 139.101 102.42C138.554 102.607 137.954 102.7 137.301 102.7ZM148.206 102.5V87.8H154.646V89.76H150.426V93.82H153.826V95.82H150.426V100.52H155.306V102.5H148.206ZM157.031 102.5V93.32H159.191V94.98C159.498 94.3267 159.938 93.8467 160.511 93.54C161.085 93.2333 161.725 93.08 162.431 93.08C163.338 93.0933 164.025 93.2533 164.491 93.56C164.958 93.8667 165.278 94.2733 165.451 94.78C165.745 94.26 166.185 93.8467 166.771 93.54C167.358 93.2333 167.978 93.08 168.631 93.08C169.631 93.08 170.371 93.2733 170.851 93.66C171.345 94.0333 171.665 94.58 171.811 95.3C171.971 96.0067 172.051 96.8733 172.051 97.9V102.5H169.871V97.88C169.871 96.8533 169.765 96.0933 169.551 95.6C169.351 95.1067 168.925 94.86 168.271 94.86C167.391 94.86 166.745 95.1533 166.331 95.74C165.918 96.3267 165.711 97.06 165.711 97.94V102.5H163.551V97.56C163.551 96.9867 163.525 96.5 163.471 96.1C163.431 95.7 163.291 95.3933 163.051 95.18C162.825 94.9667 162.431 94.86 161.871 94.86C161.405 94.86 160.965 95 160.551 95.28C160.151 95.56 159.825 95.9333 159.571 96.4C159.331 96.8533 159.211 97.3667 159.211 97.94V102.5H157.031ZM174.571 107.36V93.32H176.651V95.02C176.958 94.4733 177.385 94.0133 177.931 93.64C178.491 93.2667 179.211 93.08 180.091 93.08C180.918 93.08 181.658 93.2533 182.311 93.6C182.965 93.9467 183.478 94.4733 183.851 95.18C184.238 95.8867 184.431 96.78 184.431 97.86C184.431 98.8467 184.231 99.7067 183.831 100.44C183.431 101.16 182.898 101.72 182.231 102.12C181.565 102.507 180.818 102.7 179.991 102.7C179.205 102.7 178.531 102.56 177.971 102.28C177.411 102 176.971 101.613 176.651 101.12V107.36H174.571ZM179.491 100.88C180.398 100.88 181.071 100.593 181.511 100.02C181.965 99.4467 182.191 98.7467 182.191 97.92C182.191 97.0533 181.965 96.34 181.511 95.78C181.071 95.22 180.398 94.94 179.491 94.94C179.011 94.94 178.565 95.0533 178.151 95.28C177.738 95.5067 177.405 95.8333 177.151 96.26C176.898 96.6867 176.771 97.2 176.771 97.8V97.94C176.771 98.5267 176.898 99.0467 177.151 99.5C177.405 99.94 177.738 100.28 178.151 100.52C178.565 100.76 179.011 100.88 179.491 100.88ZM187.265 102.5V95.08H185.645V93.32H187.265V89.58L189.445 89.1V93.32H191.565V95.08H189.445V102.5H187.265ZM194.117 107.54L196.097 102.78L192.297 93.32H194.737L196.697 99.16L197.137 100.58L197.577 99.16L199.637 93.32H201.997L196.357 107.54H194.117ZM203.686 97.28L203.306 87.32H205.866L205.486 97.28H203.686ZM204.546 102.72C204.146 102.72 203.806 102.587 203.526 102.32C203.246 102.04 203.106 101.693 203.106 101.28C203.106 100.88 203.24 100.54 203.506 100.26C203.786 99.98 204.133 99.84 204.546 99.84C204.973 99.84 205.32 99.98 205.586 100.26C205.853 100.54 205.986 100.88 205.986 101.28C205.986 101.693 205.846 102.04 205.566 102.32C205.3 102.587 204.96 102.72 204.546 102.72Z" fill="#323135"/>
<path d="M15.3277 135.5L11.9197 124.044H13.1197L15.4397 131.916C15.5997 132.476 15.7437 133.052 15.8877 133.804C16.0797 132.972 16.2397 132.476 16.4157 131.916L18.9117 124.044H20.1117L22.6077 131.916C22.7837 132.492 22.9437 133.068 23.1197 133.804C23.2957 132.924 23.4397 132.364 23.5677 131.932L25.9357 124.044H27.1037L23.6637 135.5H22.5757L19.5037 125.772L16.4317 135.5H15.3277ZM29.7919 135.484H28.6879V123.836H29.7919V129.1C30.2879 128.172 31.2319 127.548 32.5279 127.548C34.5599 127.548 35.4719 128.812 35.4719 130.764V135.5H34.3679V131.004C34.3679 129.196 33.5199 128.556 32.3199 128.556C30.6559 128.556 29.7919 129.788 29.7919 131.276V135.484ZM41.1203 135.692C38.8483 135.692 37.3283 134.06 37.3283 131.628C37.3283 129.212 38.8323 127.548 41.0403 127.548C43.1363 127.548 44.5603 129.036 44.5603 131.228V131.772H38.4003C38.4803 133.66 39.4723 134.748 41.1363 134.748C42.4003 134.748 43.2163 134.204 43.5043 133.18H44.5603C44.1443 134.812 42.9443 135.692 41.1203 135.692ZM41.0403 128.492C39.5843 128.492 38.6243 129.452 38.4323 130.972H43.4563C43.4563 129.484 42.4963 128.492 41.0403 128.492ZM47.6294 135.5H46.5254V127.756H47.4854L47.6454 129.1C48.1574 128.108 49.1814 127.548 50.3014 127.548C52.4294 127.548 53.3094 128.812 53.3094 130.764V135.5H52.2054V131.004C52.2054 129.196 51.3894 128.556 50.1094 128.556C48.5254 128.556 47.6294 129.708 47.6294 131.452V135.5ZM59.5633 138.876V137.964H60.4113C61.0833 137.964 61.7553 137.916 62.1393 136.876L62.4753 135.964L59.3393 127.756H60.5073L63.0033 134.508L65.4513 127.756H66.5873L63.0353 137.276C62.5873 138.492 61.8353 138.988 60.7313 138.988C60.2673 138.988 59.9153 138.956 59.5633 138.876ZM67.2689 131.628C67.2689 129.26 68.9329 127.548 71.2049 127.548C73.4769 127.548 75.1409 129.26 75.1409 131.628C75.1409 133.98 73.4769 135.692 71.2049 135.692C68.9329 135.692 67.2689 133.98 67.2689 131.628ZM68.3889 131.612C68.3889 133.436 69.5409 134.7 71.2049 134.7C72.8529 134.7 74.0209 133.436 74.0209 131.612C74.0209 129.82 72.8529 128.54 71.2049 128.54C69.5409 128.54 68.3889 129.82 68.3889 131.612ZM82.3592 127.756H83.4632V135.5H82.5032L82.3592 134.188C81.9272 135.084 80.8552 135.692 79.6392 135.692C77.8152 135.692 76.8232 134.444 76.8232 132.556V127.74H77.9432V132.204C77.9432 134.044 78.7592 134.7 79.9912 134.7C81.4792 134.7 82.3592 133.708 82.3592 131.868V127.756ZM92.8244 135.692C91.1764 135.692 90.2004 134.764 90.2004 133.404C90.2004 131.98 91.2884 131.084 93.0964 130.94L95.6564 130.732V130.476C95.6564 128.956 94.7444 128.476 93.6084 128.476C92.2644 128.476 91.4644 129.084 91.4644 130.124H90.4564C90.4564 128.556 91.7364 127.548 93.6404 127.548C95.4324 127.548 96.7444 128.444 96.7444 130.492V135.5H95.8164L95.6724 134.14C95.1924 135.116 94.1364 135.692 92.8244 135.692ZM93.0804 134.796C94.7124 134.796 95.6564 133.66 95.6564 131.98V131.564L93.3684 131.74C91.9124 131.868 91.3204 132.508 91.3204 133.372C91.3204 134.316 92.0244 134.796 93.0804 134.796ZM102.2 135.692C99.9438 135.692 98.6158 133.964 98.6158 131.644C98.6158 129.308 99.9438 127.548 102.248 127.548C103.528 127.548 104.552 128.108 105.096 129.228V123.836H106.2V135.5H105.24L105.128 133.916C104.584 135.116 103.496 135.692 102.2 135.692ZM102.392 134.684C104.088 134.684 105.08 133.404 105.08 131.612C105.08 129.836 104.088 128.54 102.392 128.54C100.712 128.54 99.7358 129.836 99.7358 131.612C99.7358 133.404 100.712 134.684 102.392 134.684ZM111.744 135.692C109.488 135.692 108.16 133.964 108.16 131.644C108.16 129.308 109.488 127.548 111.792 127.548C113.072 127.548 114.096 128.108 114.64 129.228V123.836H115.744V135.5H114.784L114.672 133.916C114.128 135.116 113.04 135.692 111.744 135.692ZM111.936 134.684C113.632 134.684 114.624 133.404 114.624 131.612C114.624 129.836 113.632 128.54 111.936 128.54C110.256 128.54 109.28 129.836 109.28 131.612C109.28 133.404 110.256 134.684 111.936 134.684ZM122.885 138.876V127.756H123.845L123.957 129.324C124.501 128.124 125.589 127.548 126.885 127.548C129.125 127.548 130.469 129.26 130.469 131.596C130.469 133.932 129.173 135.692 126.885 135.692C125.573 135.692 124.533 135.132 123.989 134.012V138.876H122.885ZM124.005 131.628C124.005 133.404 124.997 134.7 126.693 134.7C128.373 134.7 129.349 133.404 129.349 131.628C129.349 129.836 128.373 128.556 126.693 128.556C124.997 128.556 124.005 129.836 124.005 131.628ZM136.477 127.66V128.652H135.869C134.445 128.652 133.533 129.612 133.533 131.084V135.5H132.429V127.756H133.469L133.549 128.956C133.853 128.124 134.669 127.58 135.757 127.58C135.997 127.58 136.205 127.596 136.477 127.66ZM137.303 131.628C137.303 129.26 138.967 127.548 141.239 127.548C143.511 127.548 145.175 129.26 145.175 131.628C145.175 133.98 143.511 135.692 141.239 135.692C138.967 135.692 137.303 133.98 137.303 131.628ZM138.423 131.612C138.423 133.436 139.575 134.7 141.239 134.7C142.887 134.7 144.055 133.436 144.055 131.612C144.055 129.82 142.887 128.54 141.239 128.54C139.575 128.54 138.423 129.82 138.423 131.612ZM150.181 135.692C147.925 135.692 146.597 133.964 146.597 131.644C146.597 129.308 147.925 127.548 150.229 127.548C151.509 127.548 152.533 128.108 153.077 129.228V123.836H154.181V135.5H153.221L153.109 133.916C152.565 135.116 151.477 135.692 150.181 135.692ZM150.373 134.684C152.069 134.684 153.061 133.404 153.061 131.612C153.061 129.836 152.069 128.54 150.373 128.54C148.693 128.54 147.717 129.836 147.717 131.612C147.717 133.404 148.693 134.684 150.373 134.684ZM162.125 127.756H163.229V135.5H162.269L162.125 134.188C161.693 135.084 160.621 135.692 159.405 135.692C157.581 135.692 156.589 134.444 156.589 132.556V127.74H157.709V132.204C157.709 134.044 158.525 134.7 159.757 134.7C161.245 134.7 162.125 133.708 162.125 131.868V127.756ZM165.028 131.644C165.028 129.212 166.516 127.548 168.772 127.548C170.564 127.548 171.876 128.588 172.18 130.188H171.076C170.788 129.116 169.86 128.524 168.788 128.524C167.22 128.524 166.116 129.724 166.116 131.628C166.116 133.468 167.14 134.7 168.708 134.7C169.86 134.7 170.788 134.06 171.092 133.068H172.212C171.844 134.652 170.468 135.692 168.708 135.692C166.516 135.692 165.028 134.076 165.028 131.644ZM175.861 135.5H174.773V128.684H173.221V127.756H174.773V125.308H175.861V127.756H177.413V128.684H175.861V135.5ZM178.394 133.324H179.45C179.45 134.22 180.122 134.78 181.21 134.78C182.41 134.78 183.114 134.268 183.114 133.436C183.114 132.796 182.794 132.428 181.882 132.204L180.554 131.868C179.21 131.532 178.554 130.828 178.554 129.772C178.554 128.412 179.69 127.548 181.354 127.548C182.986 127.548 184.042 128.444 184.09 129.884H183.018C182.986 128.988 182.362 128.46 181.322 128.46C180.234 128.46 179.626 128.924 179.626 129.756C179.626 130.348 180.042 130.764 180.89 130.972L182.218 131.308C183.562 131.644 184.17 132.268 184.17 133.388C184.17 134.78 182.986 135.692 181.226 135.692C179.482 135.692 178.394 134.764 178.394 133.324ZM188.015 134.956C188.015 135.948 187.247 136.812 186.255 136.956V136.364C186.831 136.268 187.247 135.852 187.247 135.404C187.151 135.468 187.023 135.516 186.831 135.516C186.383 135.516 185.999 135.196 185.999 134.652C185.999 134.092 186.383 133.692 186.943 133.692C187.519 133.692 188.015 134.156 188.015 134.956ZM196.864 135.5H195.776V128.684H194.224V127.756H195.776V125.308H196.864V127.756H198.416V128.684H196.864V135.5ZM201.158 135.484H200.054V123.836H201.158V129.1C201.654 128.172 202.598 127.548 203.894 127.548C205.926 127.548 206.838 128.812 206.838 130.764V135.5H205.734V131.004C205.734 129.196 204.886 128.556 203.686 128.556C202.022 128.556 201.158 129.788 201.158 131.276V135.484ZM212.486 135.692C210.214 135.692 208.694 134.06 208.694 131.628C208.694 129.212 210.198 127.548 212.406 127.548C214.502 127.548 215.926 129.036 215.926 131.228V131.772H209.766C209.846 133.66 210.838 134.748 212.502 134.748C213.766 134.748 214.582 134.204 214.87 133.18H215.926C215.51 134.812 214.31 135.692 212.486 135.692ZM212.406 128.492C210.95 128.492 209.99 129.452 209.798 130.972H214.822C214.822 129.484 213.862 128.492 212.406 128.492ZM216.92 138.876V137.964H217.768C218.44 137.964 219.112 137.916 219.496 136.876L219.832 135.964L216.696 127.756H217.864L220.36 134.508L222.808 127.756H223.944L220.392 137.276C219.944 138.492 219.192 138.988 218.088 138.988C217.624 138.988 217.272 138.956 216.92 138.876ZM227.742 125.068C227.742 126.076 227.006 126.924 226.014 127.068V126.476C226.574 126.364 226.99 125.964 226.99 125.516C226.894 125.58 226.75 125.612 226.558 125.612C226.142 125.612 225.774 125.308 225.774 124.764C225.774 124.22 226.158 123.82 226.718 123.82C227.262 123.82 227.742 124.284 227.742 125.068ZM231.224 135.5H230.12V123.836H231.224V135.5ZM234.924 135.5H233.82V123.836H234.924V135.5ZM82.0026 160.692C80.3546 160.692 79.3786 159.764 79.3786 158.404C79.3786 156.98 80.4666 156.084 82.2746 155.94L84.8346 155.732V155.476C84.8346 153.956 83.9226 153.476 82.7866 153.476C81.4426 153.476 80.6426 154.084 80.6426 155.124H79.6346C79.6346 153.556 80.9146 152.548 82.8186 152.548C84.6106 152.548 85.9226 153.444 85.9226 155.492V160.5H84.9946L84.8506 159.14C84.3706 160.116 83.3146 160.692 82.0026 160.692ZM82.2586 159.796C83.8906 159.796 84.8346 158.66 84.8346 156.98V156.564L82.5466 156.74C81.0906 156.868 80.4986 157.508 80.4986 158.372C80.4986 159.316 81.2026 159.796 82.2586 159.796ZM88.3379 163.876V152.756H89.2979L89.4099 154.324C89.9539 153.124 91.0419 152.548 92.3379 152.548C94.5779 152.548 95.9219 154.26 95.9219 156.596C95.9219 158.932 94.6259 160.692 92.3379 160.692C91.0259 160.692 89.9859 160.132 89.4419 159.012V163.876H88.3379ZM89.4579 156.628C89.4579 158.404 90.4499 159.7 92.1459 159.7C93.8259 159.7 94.8019 158.404 94.8019 156.628C94.8019 154.836 93.8259 153.556 92.1459 153.556C90.4499 153.556 89.4579 154.836 89.4579 156.628ZM97.8817 163.876V152.756H98.8417L98.9537 154.324C99.4977 153.124 100.586 152.548 101.882 152.548C104.122 152.548 105.466 154.26 105.466 156.596C105.466 158.932 104.17 160.692 101.882 160.692C100.57 160.692 99.5297 160.132 98.9857 159.012V163.876H97.8817ZM99.0017 156.628C99.0017 158.404 99.9937 159.7 101.69 159.7C103.37 159.7 104.346 158.404 104.346 156.628C104.346 154.836 103.37 153.556 101.69 153.556C99.9937 153.556 99.0017 154.836 99.0017 156.628ZM110.673 160.692C108.401 160.692 106.881 159.06 106.881 156.628C106.881 154.212 108.385 152.548 110.593 152.548C112.689 152.548 114.113 154.036 114.113 156.228V156.772H107.953C108.033 158.66 109.025 159.748 110.689 159.748C111.953 159.748 112.769 159.204 113.057 158.18H114.113C113.697 159.812 112.497 160.692 110.673 160.692ZM110.593 153.492C109.137 153.492 108.177 154.452 107.985 155.972H113.009C113.009 154.484 112.049 153.492 110.593 153.492ZM118.224 160.692C116.576 160.692 115.6 159.764 115.6 158.404C115.6 156.98 116.688 156.084 118.496 155.94L121.056 155.732V155.476C121.056 153.956 120.144 153.476 119.008 153.476C117.664 153.476 116.864 154.084 116.864 155.124H115.856C115.856 153.556 117.136 152.548 119.04 152.548C120.832 152.548 122.144 153.444 122.144 155.492V160.5H121.216L121.072 159.14C120.592 160.116 119.536 160.692 118.224 160.692ZM118.48 159.796C120.112 159.796 121.056 158.66 121.056 156.98V156.564L118.768 156.74C117.312 156.868 116.72 157.508 116.72 158.372C116.72 159.316 117.424 159.796 118.48 159.796ZM128.608 152.66V153.652H128C126.576 153.652 125.664 154.612 125.664 156.084V160.5H124.56V152.756H125.6L125.68 153.956C125.984 153.124 126.8 152.58 127.888 152.58C128.128 152.58 128.336 152.596 128.608 152.66ZM136.017 160.484H134.913V148.836H136.017V154.1C136.513 153.172 137.457 152.548 138.753 152.548C140.785 152.548 141.697 153.812 141.697 155.764V160.5H140.593V156.004C140.593 154.196 139.745 153.556 138.545 153.556C136.881 153.556 136.017 154.788 136.017 156.276V160.484ZM147.345 160.692C145.073 160.692 143.553 159.06 143.553 156.628C143.553 154.212 145.057 152.548 147.265 152.548C149.361 152.548 150.785 154.036 150.785 156.228V156.772H144.625C144.705 158.66 145.697 159.748 147.361 159.748C148.625 159.748 149.441 159.204 149.729 158.18H150.785C150.369 159.812 149.169 160.692 147.345 160.692ZM147.265 153.492C145.809 153.492 144.849 154.452 144.657 155.972H149.681C149.681 154.484 148.721 153.492 147.265 153.492ZM156.798 152.66V153.652H156.19C154.766 153.652 153.854 154.612 153.854 156.084V160.5H152.75V152.756H153.79L153.87 153.956C154.174 153.124 154.99 152.58 156.078 152.58C156.318 152.58 156.526 152.596 156.798 152.66ZM161.417 160.692C159.145 160.692 157.625 159.06 157.625 156.628C157.625 154.212 159.129 152.548 161.337 152.548C163.433 152.548 164.857 154.036 164.857 156.228V156.772H158.697C158.777 158.66 159.769 159.748 161.433 159.748C162.697 159.748 163.513 159.204 163.801 158.18H164.857C164.441 159.812 163.241 160.692 161.417 160.692ZM161.337 153.492C159.881 153.492 158.921 154.452 158.729 155.972H163.753C163.753 154.484 162.793 153.492 161.337 153.492ZM167.282 160.676C166.738 160.676 166.274 160.228 166.274 159.7C166.274 159.156 166.738 158.692 167.282 158.692C167.826 158.692 168.29 159.156 168.29 159.7C168.29 160.228 167.826 160.676 167.282 160.676Z" fill="#68656E"/>
</svg>
