<svg width="274" height="164" viewBox="0 0 274 164" fill="none" xmlns="http://www.w3.org/2000/svg">
<path opacity="0.2" d="M163 23.5C163 40 137 54 137 54C137 54 111 40 111 23.5C111 19.9196 112.422 16.4858 114.954 13.9541C117.486 11.4223 120.92 10 124.5 10C130.147 10 134.985 13.0775 137 18C139.015 13.0775 143.853 10 149.5 10C153.08 10 156.514 11.4223 159.046 13.9541C161.578 16.4858 163 19.9196 163 23.5Z" fill="#A7A5AF"/>
<path d="M149.5 8C144.338 8 139.818 10.22 137 13.9725C134.182 10.22 129.663 8 124.5 8C120.391 8.00463 116.451 9.63915 113.545 12.545C110.639 15.4508 109.005 19.3906 109 23.5C109 41 134.948 55.165 136.052 55.75C136.344 55.9067 136.669 55.9887 137 55.9887C137.331 55.9887 137.656 55.9067 137.947 55.75C139.052 55.165 165 41 165 23.5C164.995 19.3906 163.361 15.4508 160.455 12.545C157.549 9.63915 153.609 8.00463 149.5 8ZM137 51.7C132.435 49.04 113 36.9225 113 23.5C113.004 20.4512 114.217 17.5285 116.373 15.3727C118.528 13.2168 121.451 12.004 124.5 12C129.362 12 133.445 14.59 135.15 18.75C135.301 19.1168 135.557 19.4306 135.886 19.6514C136.216 19.8722 136.603 19.9901 137 19.9901C137.397 19.9901 137.784 19.8722 138.114 19.6514C138.443 19.4306 138.699 19.1168 138.85 18.75C140.555 14.5825 144.638 12 149.5 12C152.549 12.004 155.472 13.2168 157.627 15.3727C159.783 17.5285 160.996 20.4512 161 23.5C161 36.9025 141.56 49.0375 137 51.7Z" fill="#A7A5AF"/>
<path d="M21.2331 102V95.14L16.1331 87.3H18.8131L22.3531 93.1L25.8931 87.3H28.5531L23.4731 95.18V102H21.2331ZM31.7625 102.2C30.8025 102.2 29.9558 101.987 29.2225 101.56C28.5025 101.133 27.9425 100.553 27.5425 99.82C27.1425 99.0867 26.9425 98.2733 26.9425 97.38C26.9425 96.5 27.1358 95.7 27.5225 94.98C27.9225 94.2467 28.4825 93.6667 29.2025 93.24C29.9225 92.8 30.7758 92.58 31.7625 92.58C32.7492 92.58 33.6025 92.8 34.3225 93.24C35.0425 93.6667 35.5958 94.2467 35.9825 94.98C36.3692 95.7 36.5625 96.5 36.5625 97.38C36.5625 98.2733 36.3625 99.0867 35.9625 99.82C35.5758 100.553 35.0225 101.133 34.3025 101.56C33.5825 101.987 32.7358 102.2 31.7625 102.2ZM31.8225 100.44C32.6225 100.44 33.2358 100.147 33.6625 99.56C34.1025 98.9733 34.3225 98.26 34.3225 97.42C34.3225 96.8467 34.2158 96.3333 34.0025 95.88C33.7892 95.4133 33.4825 95.04 33.0825 94.76C32.6958 94.48 32.2358 94.34 31.7025 94.34C31.1825 94.34 30.7358 94.48 30.3625 94.76C29.9892 95.04 29.6958 95.4133 29.4825 95.88C29.2825 96.3333 29.1825 96.8467 29.1825 97.42C29.1825 97.98 29.2958 98.4933 29.5225 98.96C29.7492 99.4133 30.0558 99.7733 30.4425 100.04C30.8425 100.307 31.3025 100.44 31.8225 100.44ZM41.9125 102.2C40.9925 102.2 40.2925 102.007 39.8125 101.62C39.3325 101.233 39.0058 100.72 38.8325 100.08C38.6725 99.44 38.5925 98.7333 38.5925 97.96V92.82H40.7525V97.42C40.7525 98.1267 40.7925 98.7 40.8725 99.14C40.9658 99.58 41.1392 99.9067 41.3925 100.12C41.6592 100.32 42.0525 100.42 42.5725 100.42C42.9458 100.42 43.2992 100.32 43.6325 100.12C43.9792 99.9067 44.2658 99.62 44.4925 99.26C44.7192 98.8867 44.8325 98.4733 44.8325 98.02V92.82H46.9725V102H45.2125L44.9725 100.66C44.6392 101.167 44.2258 101.553 43.7325 101.82C43.2392 102.073 42.6325 102.2 41.9125 102.2ZM54.8481 102V87.3H56.9481V92.82L56.8681 94.52C57.1081 93.9733 57.5015 93.5133 58.0481 93.14C58.6081 92.7667 59.2748 92.58 60.0481 92.58C61.0348 92.58 61.7748 92.7867 62.2681 93.2C62.7615 93.6 63.0881 94.1733 63.2481 94.92C63.4215 95.6667 63.5081 96.5533 63.5081 97.58V102H61.3681V97.56C61.3681 96.4933 61.2615 95.7 61.0481 95.18C60.8348 94.66 60.3481 94.4 59.5881 94.4C59.2148 94.4 58.8215 94.52 58.4081 94.76C58.0081 94.9867 57.6681 95.3267 57.3881 95.78C57.1081 96.22 56.9681 96.7733 56.9681 97.44V102H54.8481ZM70.1558 102.2C69.3424 102.2 68.5824 102.007 67.8758 101.62C67.1824 101.233 66.6224 100.68 66.1958 99.96C65.7691 99.24 65.5558 98.38 65.5558 97.38C65.5558 96.42 65.7358 95.58 66.0958 94.86C66.4691 94.14 66.9891 93.58 67.6558 93.18C68.3358 92.78 69.1424 92.58 70.0758 92.58C70.6358 92.58 71.1424 92.68 71.5958 92.88C72.0624 93.0667 72.4491 93.3 72.7558 93.58C73.0758 93.8467 73.2891 94.1067 73.3958 94.36L73.4358 92.82H75.4958V102H73.4558L73.4158 100.38C73.2824 100.673 73.0558 100.96 72.7358 101.24C72.4291 101.52 72.0558 101.753 71.6158 101.94C71.1758 102.113 70.6891 102.2 70.1558 102.2ZM70.5158 100.4C71.0091 100.4 71.4558 100.287 71.8558 100.06C72.2691 99.82 72.5958 99.4867 72.8358 99.06C73.0891 98.6333 73.2158 98.1267 73.2158 97.54V97.4C73.2158 96.8 73.0891 96.28 72.8358 95.84C72.5958 95.3867 72.2691 95.04 71.8558 94.8C71.4558 94.5467 71.0091 94.42 70.5158 94.42C69.6224 94.42 68.9491 94.7067 68.4958 95.28C68.0558 95.8533 67.8358 96.56 67.8358 97.4C67.8358 98.2533 68.0558 98.9667 68.4958 99.54C68.9491 100.113 69.6224 100.4 70.5158 100.4ZM81.6047 102L76.7647 92.82H79.2247L81.2047 96.96L81.8447 98.62L82.4847 96.96L84.4447 92.82H86.8447L82.0247 102H81.6047ZM92.1741 102.2C91.0274 102.2 90.0941 101.98 89.3741 101.54C88.6541 101.087 88.1274 100.493 87.7941 99.76C87.4607 99.0267 87.2941 98.2467 87.2941 97.42C87.2941 96.42 87.4941 95.56 87.8941 94.84C88.3074 94.12 88.8741 93.5667 89.5941 93.18C90.3141 92.78 91.1274 92.58 92.0341 92.58C93.4874 92.58 94.5474 92.9867 95.2141 93.8C95.8807 94.6 96.2141 95.68 96.2141 97.04C96.2141 97.4 96.1941 97.7733 96.1541 98.16H89.5541C89.7007 98.9867 89.9941 99.58 90.4341 99.94C90.8874 100.287 91.4874 100.46 92.2341 100.46C92.9541 100.46 93.5207 100.393 93.9341 100.26C94.3474 100.127 94.6874 99.9933 94.9541 99.86L95.6141 101.4C95.3474 101.573 94.9341 101.753 94.3741 101.94C93.8141 102.113 93.0807 102.2 92.1741 102.2ZM89.5541 96.66H94.1141C94.1274 95.7933 93.9341 95.2 93.5341 94.88C93.1341 94.56 92.6141 94.4 91.9741 94.4C91.3074 94.4 90.7607 94.58 90.3341 94.94C89.9207 95.2867 89.6607 95.86 89.5541 96.66ZM103.381 102V92.82H105.501L105.521 94.5C105.761 93.9533 106.148 93.5 106.681 93.14C107.228 92.7667 107.881 92.58 108.641 92.58C109.628 92.58 110.368 92.7867 110.861 93.2C111.354 93.6 111.681 94.1733 111.841 94.92C112.014 95.6667 112.101 96.5533 112.101 97.58V102H109.941V97.64C109.941 96.5733 109.834 95.76 109.621 95.2C109.421 94.64 108.948 94.36 108.201 94.36C107.814 94.36 107.414 94.48 107.001 94.72C106.588 94.96 106.241 95.3067 105.961 95.76C105.681 96.2133 105.541 96.7733 105.541 97.44V102H103.381ZM118.93 102.2C117.97 102.2 117.124 101.987 116.39 101.56C115.67 101.133 115.11 100.553 114.71 99.82C114.31 99.0867 114.11 98.2733 114.11 97.38C114.11 96.5 114.304 95.7 114.69 94.98C115.09 94.2467 115.65 93.6667 116.37 93.24C117.09 92.8 117.944 92.58 118.93 92.58C119.917 92.58 120.77 92.8 121.49 93.24C122.21 93.6667 122.764 94.2467 123.15 94.98C123.537 95.7 123.73 96.5 123.73 97.38C123.73 98.2733 123.53 99.0867 123.13 99.82C122.744 100.553 122.19 101.133 121.47 101.56C120.75 101.987 119.904 102.2 118.93 102.2ZM118.99 100.44C119.79 100.44 120.404 100.147 120.83 99.56C121.27 98.9733 121.49 98.26 121.49 97.42C121.49 96.8467 121.384 96.3333 121.17 95.88C120.957 95.4133 120.65 95.04 120.25 94.76C119.864 94.48 119.404 94.34 118.87 94.34C118.35 94.34 117.904 94.48 117.53 94.76C117.157 95.04 116.864 95.4133 116.65 95.88C116.45 96.3333 116.35 96.8467 116.35 97.42C116.35 97.98 116.464 98.4933 116.69 98.96C116.917 99.4133 117.224 99.7733 117.61 100.04C118.01 100.307 118.47 100.44 118.99 100.44ZM131.8 102V94.54H130.32V92.82H131.8V90.84C131.8 89.6533 132.086 88.7267 132.66 88.06C133.233 87.3933 134.086 87.06 135.22 87.06C135.58 87.06 135.9 87.1133 136.18 87.22C136.473 87.3267 136.666 87.4 136.76 87.44L136.34 89.48C136.273 89.4 136.14 89.3067 135.94 89.2C135.753 89.08 135.533 89.02 135.28 89.02C135.093 89.02 134.893 89.06 134.68 89.14C134.48 89.2067 134.306 89.3667 134.16 89.62C134.013 89.86 133.933 90.24 133.92 90.76V92.82H136.08V94.54H133.92V102H131.8ZM141.757 102.2C140.944 102.2 140.184 102.007 139.477 101.62C138.784 101.233 138.224 100.68 137.797 99.96C137.371 99.24 137.157 98.38 137.157 97.38C137.157 96.42 137.337 95.58 137.697 94.86C138.071 94.14 138.591 93.58 139.257 93.18C139.937 92.78 140.744 92.58 141.677 92.58C142.237 92.58 142.744 92.68 143.197 92.88C143.664 93.0667 144.051 93.3 144.357 93.58C144.677 93.8467 144.891 94.1067 144.997 94.36L145.037 92.82H147.097V102H145.057L145.017 100.38C144.884 100.673 144.657 100.96 144.337 101.24C144.031 101.52 143.657 101.753 143.217 101.94C142.777 102.113 142.291 102.2 141.757 102.2ZM142.117 100.4C142.611 100.4 143.057 100.287 143.457 100.06C143.871 99.82 144.197 99.4867 144.437 99.06C144.691 98.6333 144.817 98.1267 144.817 97.54V97.4C144.817 96.8 144.691 96.28 144.437 95.84C144.197 95.3867 143.871 95.04 143.457 94.8C143.057 94.5467 142.611 94.42 142.117 94.42C141.224 94.42 140.551 94.7067 140.097 95.28C139.657 95.8533 139.437 96.56 139.437 97.4C139.437 98.2533 139.657 98.9667 140.097 99.54C140.551 100.113 141.224 100.4 142.117 100.4ZM153.206 102L148.366 92.82H150.826L152.806 96.96L153.446 98.62L154.086 96.96L156.046 92.82H158.446L153.626 102H153.206ZM163.677 102.2C162.717 102.2 161.87 101.987 161.137 101.56C160.417 101.133 159.857 100.553 159.457 99.82C159.057 99.0867 158.857 98.2733 158.857 97.38C158.857 96.5 159.05 95.7 159.437 94.98C159.837 94.2467 160.397 93.6667 161.117 93.24C161.837 92.8 162.69 92.58 163.677 92.58C164.663 92.58 165.517 92.8 166.237 93.24C166.957 93.6667 167.51 94.2467 167.897 94.98C168.283 95.7 168.477 96.5 168.477 97.38C168.477 98.2733 168.277 99.0867 167.877 99.82C167.49 100.553 166.937 101.133 166.217 101.56C165.497 101.987 164.65 102.2 163.677 102.2ZM163.737 100.44C164.537 100.44 165.15 100.147 165.577 99.56C166.017 98.9733 166.237 98.26 166.237 97.42C166.237 96.8467 166.13 96.3333 165.917 95.88C165.703 95.4133 165.397 95.04 164.997 94.76C164.61 94.48 164.15 94.34 163.617 94.34C163.097 94.34 162.65 94.48 162.277 94.76C161.903 95.04 161.61 95.4133 161.397 95.88C161.197 96.3333 161.097 96.8467 161.097 97.42C161.097 97.98 161.21 98.4933 161.437 98.96C161.663 99.4133 161.97 99.7733 162.357 100.04C162.757 100.307 163.217 100.44 163.737 100.44ZM170.567 102V92.82H172.727V94.62C172.94 94.02 173.28 93.5333 173.747 93.16C174.227 92.7733 174.78 92.58 175.407 92.58C175.834 92.58 176.127 92.62 176.287 92.7L175.987 94.88C175.867 94.8 175.607 94.76 175.207 94.76C174.874 94.76 174.514 94.8333 174.127 94.98C173.74 95.1267 173.407 95.3867 173.127 95.76C172.86 96.12 172.727 96.6267 172.727 97.28V102H170.567ZM177.76 102V92.82H180V102H177.76ZM178.88 91.1C178.466 91.1 178.12 90.96 177.84 90.68C177.573 90.4 177.44 90.0533 177.44 89.64C177.44 89.2667 177.573 88.9467 177.84 88.68C178.12 88.4133 178.466 88.28 178.88 88.28C179.293 88.28 179.633 88.4133 179.9 88.68C180.18 88.9467 180.32 89.2667 180.32 89.64C180.32 90.0533 180.18 90.4 179.9 90.68C179.633 90.96 179.293 91.1 178.88 91.1ZM183.536 102V94.58H181.916V92.82H183.536V89.08L185.716 88.6V92.82H187.836V94.58H185.716V102H183.536ZM193.737 102.2C192.59 102.2 191.657 101.98 190.937 101.54C190.217 101.087 189.69 100.493 189.357 99.76C189.023 99.0267 188.857 98.2467 188.857 97.42C188.857 96.42 189.057 95.56 189.457 94.84C189.87 94.12 190.437 93.5667 191.157 93.18C191.877 92.78 192.69 92.58 193.597 92.58C195.05 92.58 196.11 92.9867 196.777 93.8C197.443 94.6 197.777 95.68 197.777 97.04C197.777 97.4 197.757 97.7733 197.717 98.16H191.117C191.263 98.9867 191.557 99.58 191.997 99.94C192.45 100.287 193.05 100.46 193.797 100.46C194.517 100.46 195.083 100.393 195.497 100.26C195.91 100.127 196.25 99.9933 196.517 99.86L197.177 101.4C196.91 101.573 196.497 101.753 195.937 101.94C195.377 102.113 194.643 102.2 193.737 102.2ZM191.117 96.66H195.677C195.69 95.7933 195.497 95.2 195.097 94.88C194.697 94.56 194.177 94.4 193.537 94.4C192.87 94.4 192.323 94.58 191.897 94.94C191.483 95.2867 191.223 95.86 191.117 96.66ZM205.103 102V92.82H207.343V102H205.103ZM206.223 91.1C205.81 91.1 205.463 90.96 205.183 90.68C204.917 90.4 204.783 90.0533 204.783 89.64C204.783 89.2667 204.917 88.9467 205.183 88.68C205.463 88.4133 205.81 88.28 206.223 88.28C206.637 88.28 206.977 88.4133 207.243 88.68C207.523 88.9467 207.663 89.2667 207.663 89.64C207.663 90.0533 207.523 90.4 207.243 90.68C206.977 90.96 206.637 91.1 206.223 91.1ZM210.88 102V94.58H209.26V92.82H210.88V89.08L213.06 88.6V92.82H215.18V94.58H213.06V102H210.88ZM221.08 102.2C219.934 102.2 219 101.98 218.28 101.54C217.56 101.087 217.034 100.493 216.7 99.76C216.367 99.0267 216.2 98.2467 216.2 97.42C216.2 96.42 216.4 95.56 216.8 94.84C217.214 94.12 217.78 93.5667 218.5 93.18C219.22 92.78 220.034 92.58 220.94 92.58C222.394 92.58 223.454 92.9867 224.12 93.8C224.787 94.6 225.12 95.68 225.12 97.04C225.12 97.4 225.1 97.7733 225.06 98.16H218.46C218.607 98.9867 218.9 99.58 219.34 99.94C219.794 100.287 220.394 100.46 221.14 100.46C221.86 100.46 222.427 100.393 222.84 100.26C223.254 100.127 223.594 99.9933 223.86 99.86L224.52 101.4C224.254 101.573 223.84 101.753 223.28 101.94C222.72 102.113 221.987 102.2 221.08 102.2ZM218.46 96.66H223.02C223.034 95.7933 222.84 95.2 222.44 94.88C222.04 94.56 221.52 94.4 220.88 94.4C220.214 94.4 219.667 94.58 219.24 94.94C218.827 95.2867 218.567 95.86 218.46 96.66ZM227.19 102V92.82H229.35V94.48C229.656 93.8267 230.096 93.3467 230.67 93.04C231.243 92.7333 231.883 92.58 232.59 92.58C233.496 92.5933 234.183 92.7533 234.65 93.06C235.116 93.3667 235.436 93.7733 235.61 94.28C235.903 93.76 236.343 93.3467 236.93 93.04C237.516 92.7333 238.136 92.58 238.79 92.58C239.79 92.58 240.53 92.7733 241.01 93.16C241.503 93.5333 241.823 94.08 241.97 94.8C242.13 95.5067 242.21 96.3733 242.21 97.4V102H240.03V97.38C240.03 96.3533 239.923 95.5933 239.71 95.1C239.51 94.6067 239.083 94.36 238.43 94.36C237.55 94.36 236.903 94.6533 236.49 95.24C236.076 95.8267 235.87 96.56 235.87 97.44V102H233.71V97.06C233.71 96.4867 233.683 96 233.63 95.6C233.59 95.2 233.45 94.8933 233.21 94.68C232.983 94.4667 232.59 94.36 232.03 94.36C231.563 94.36 231.123 94.5 230.71 94.78C230.31 95.06 229.983 95.4333 229.73 95.9C229.49 96.3533 229.37 96.8667 229.37 97.44V102H227.19ZM247.83 102.2C247.403 102.2 246.957 102.16 246.49 102.08C246.037 102 245.617 101.9 245.23 101.78C244.857 101.647 244.57 101.507 244.37 101.36L245.09 99.66C245.317 99.82 245.657 100 246.11 100.2C246.577 100.4 247.15 100.5 247.83 100.5C248.43 100.5 248.837 100.413 249.05 100.24C249.263 100.053 249.37 99.84 249.37 99.6C249.37 99.3467 249.277 99.1533 249.09 99.02C248.917 98.8733 248.663 98.74 248.33 98.62C247.997 98.5 247.603 98.3533 247.15 98.18C246.71 97.9933 246.29 97.78 245.89 97.54C245.49 97.2867 245.163 96.98 244.91 96.62C244.67 96.2467 244.55 95.7933 244.55 95.26C244.55 94.3933 244.883 93.7333 245.55 93.28C246.217 92.8133 247.097 92.58 248.19 92.58C248.75 92.58 249.29 92.64 249.81 92.76C250.343 92.88 250.743 93.0333 251.01 93.22L250.23 94.94C250.07 94.78 249.803 94.6333 249.43 94.5C249.07 94.3667 248.637 94.3 248.13 94.3C247.183 94.3 246.71 94.5867 246.71 95.16C246.71 95.44 246.81 95.6667 247.01 95.84C247.223 96 247.497 96.14 247.83 96.26C248.177 96.3667 248.55 96.5 248.95 96.66C249.763 96.98 250.383 97.3533 250.81 97.78C251.25 98.1933 251.47 98.7467 251.47 99.44C251.47 100.067 251.303 100.587 250.97 101C250.637 101.413 250.19 101.72 249.63 101.92C249.083 102.107 248.483 102.2 247.83 102.2ZM253.767 96.78L253.387 86.82H255.947L255.567 96.78H253.767ZM254.627 102.22C254.227 102.22 253.887 102.087 253.607 101.82C253.327 101.54 253.187 101.193 253.187 100.78C253.187 100.38 253.32 100.04 253.587 99.76C253.867 99.48 254.213 99.34 254.627 99.34C255.053 99.34 255.4 99.48 255.667 99.76C255.933 100.04 256.067 100.38 256.067 100.78C256.067 101.193 255.927 101.54 255.647 101.82C255.38 102.087 255.04 102.22 254.627 102.22Z" fill="#323135"/>
<path d="M26.8386 132.216L22.9506 125.544H24.2466L27.0786 130.488C27.2066 130.728 27.3026 130.92 27.4146 131.176C27.5586 130.888 27.5586 130.888 27.7666 130.488L30.5666 125.544H31.8306L27.9906 132.216V137H26.8386V132.216ZM31.3018 133.128C31.3018 130.76 32.9658 129.048 35.2378 129.048C37.5098 129.048 39.1738 130.76 39.1738 133.128C39.1738 135.48 37.5098 137.192 35.2378 137.192C32.9658 137.192 31.3018 135.48 31.3018 133.128ZM32.4218 133.112C32.4218 134.936 33.5738 136.2 35.2378 136.2C36.8858 136.2 38.0538 134.936 38.0538 133.112C38.0538 131.32 36.8858 130.04 35.2378 130.04C33.5738 130.04 32.4218 131.32 32.4218 133.112ZM46.392 129.256H47.496V137H46.536L46.392 135.688C45.96 136.584 44.888 137.192 43.672 137.192C41.848 137.192 40.856 135.944 40.856 134.056V129.24H41.976V133.704C41.976 135.544 42.792 136.2 44.024 136.2C45.512 136.2 46.392 135.208 46.392 133.368V129.256ZM57.6733 137.192C55.4173 137.192 54.0893 135.464 54.0893 133.144C54.0893 130.808 55.4173 129.048 57.7213 129.048C59.0013 129.048 60.0253 129.608 60.5693 130.728V125.336H61.6733V137H60.7133L60.6013 135.416C60.0573 136.616 58.9693 137.192 57.6733 137.192ZM57.8653 136.184C59.5613 136.184 60.5533 134.904 60.5533 133.112C60.5533 131.336 59.5613 130.04 57.8653 130.04C56.1853 130.04 55.2093 131.336 55.2093 133.112C55.2093 134.904 56.1853 136.184 57.8653 136.184ZM63.633 133.128C63.633 130.76 65.297 129.048 67.569 129.048C69.841 129.048 71.505 130.76 71.505 133.128C71.505 135.48 69.841 137.192 67.569 137.192C65.297 137.192 63.633 135.48 63.633 133.128ZM64.753 133.112C64.753 134.936 65.905 136.2 67.569 136.2C69.217 136.2 70.385 134.936 70.385 133.112C70.385 131.32 69.217 130.04 67.569 130.04C65.905 130.04 64.753 131.32 64.753 133.112ZM74.5748 137H73.4708V129.256H74.4308L74.5908 130.6C75.1028 129.608 76.1268 129.048 77.2468 129.048C79.3748 129.048 80.2548 130.312 80.2548 132.264V137H79.1508V132.504C79.1508 130.696 78.3348 130.056 77.0548 130.056C75.4708 130.056 74.5748 131.208 74.5748 132.952V137ZM84.1346 126.568C84.1346 127.576 83.3986 128.424 82.4066 128.568V127.976C82.9666 127.864 83.3826 127.464 83.3826 127.016C83.2866 127.08 83.1426 127.112 82.9506 127.112C82.5346 127.112 82.1666 126.808 82.1666 126.264C82.1666 125.72 82.5506 125.32 83.1106 125.32C83.6546 125.32 84.1346 125.784 84.1346 126.568ZM88.2405 137H87.1525V130.184H85.6005V129.256H87.1525V126.808H88.2405V129.256H89.7925V130.184H88.2405V137ZM97.1716 136.984H96.0676V125.336H97.1716V130.6C97.6676 129.672 98.6116 129.048 99.9076 129.048C101.94 129.048 102.852 130.312 102.852 132.264V137H101.748V132.504C101.748 130.696 100.9 130.056 99.6996 130.056C98.0356 130.056 97.1716 131.288 97.1716 132.776V136.984ZM107.476 137.192C105.828 137.192 104.852 136.264 104.852 134.904C104.852 133.48 105.94 132.584 107.748 132.44L110.308 132.232V131.976C110.308 130.456 109.396 129.976 108.26 129.976C106.916 129.976 106.116 130.584 106.116 131.624H105.108C105.108 130.056 106.388 129.048 108.292 129.048C110.084 129.048 111.396 129.944 111.396 131.992V137H110.468L110.324 135.64C109.844 136.616 108.788 137.192 107.476 137.192ZM107.732 136.296C109.364 136.296 110.308 135.16 110.308 133.48V133.064L108.02 133.24C106.564 133.368 105.972 134.008 105.972 134.872C105.972 135.816 106.676 136.296 107.732 136.296ZM115.659 137L112.491 129.256H113.675L115.675 134.248C115.883 134.808 116.091 135.336 116.235 135.848C116.379 135.32 116.587 134.808 116.811 134.248L118.843 129.256H119.979L116.763 137H115.659ZM124.384 137.192C122.112 137.192 120.592 135.56 120.592 133.128C120.592 130.712 122.096 129.048 124.304 129.048C126.4 129.048 127.824 130.536 127.824 132.728V133.272H121.664C121.744 135.16 122.736 136.248 124.4 136.248C125.664 136.248 126.48 135.704 126.768 134.68H127.824C127.408 136.312 126.208 137.192 124.384 137.192ZM124.304 129.992C122.848 129.992 121.888 130.952 121.696 132.472H126.72C126.72 130.984 125.76 129.992 124.304 129.992ZM136.651 137.192C135.003 137.192 134.027 136.264 134.027 134.904C134.027 133.48 135.115 132.584 136.923 132.44L139.483 132.232V131.976C139.483 130.456 138.571 129.976 137.435 129.976C136.091 129.976 135.291 130.584 135.291 131.624H134.283C134.283 130.056 135.563 129.048 137.467 129.048C139.259 129.048 140.571 129.944 140.571 131.992V137H139.643L139.499 135.64C139.019 136.616 137.963 137.192 136.651 137.192ZM136.907 136.296C138.539 136.296 139.483 135.16 139.483 133.48V133.064L137.195 133.24C135.739 133.368 135.147 134.008 135.147 134.872C135.147 135.816 135.851 136.296 136.907 136.296ZM144.09 137H142.986V129.256H143.946L144.106 130.6C144.618 129.608 145.642 129.048 146.762 129.048C148.89 129.048 149.77 130.312 149.77 132.264V137H148.666V132.504C148.666 130.696 147.85 130.056 146.57 130.056C144.986 130.056 144.09 131.208 144.09 132.952V137ZM151.23 140.376V139.464H152.078C152.75 139.464 153.422 139.416 153.806 138.376L154.142 137.464L151.006 129.256H152.174L154.67 136.008L157.118 129.256H158.254L154.702 138.776C154.254 139.992 153.502 140.488 152.398 140.488C151.934 140.488 151.582 140.456 151.23 140.376ZM163.727 134.824H164.783C164.783 135.72 165.455 136.28 166.543 136.28C167.743 136.28 168.447 135.768 168.447 134.936C168.447 134.296 168.127 133.928 167.215 133.704L165.887 133.368C164.543 133.032 163.887 132.328 163.887 131.272C163.887 129.912 165.023 129.048 166.687 129.048C168.319 129.048 169.375 129.944 169.423 131.384H168.351C168.319 130.488 167.695 129.96 166.655 129.96C165.567 129.96 164.959 130.424 164.959 131.256C164.959 131.848 165.375 132.264 166.223 132.472L167.551 132.808C168.895 133.144 169.503 133.768 169.503 134.888C169.503 136.28 168.319 137.192 166.559 137.192C164.815 137.192 163.727 136.264 163.727 134.824ZM173.745 137.192C172.097 137.192 171.121 136.264 171.121 134.904C171.121 133.48 172.209 132.584 174.017 132.44L176.577 132.232V131.976C176.577 130.456 175.665 129.976 174.529 129.976C173.185 129.976 172.385 130.584 172.385 131.624H171.377C171.377 130.056 172.657 129.048 174.561 129.048C176.353 129.048 177.665 129.944 177.665 131.992V137H176.737L176.593 135.64C176.113 136.616 175.057 137.192 173.745 137.192ZM174.001 136.296C175.633 136.296 176.577 135.16 176.577 133.48V133.064L174.289 133.24C172.833 133.368 172.241 134.008 172.241 134.872C172.241 135.816 172.945 136.296 174.001 136.296ZM181.928 137L178.76 129.256H179.944L181.944 134.248C182.152 134.808 182.36 135.336 182.504 135.848C182.648 135.32 182.856 134.808 183.08 134.248L185.112 129.256H186.248L183.032 137H181.928ZM190.653 137.192C188.381 137.192 186.861 135.56 186.861 133.128C186.861 130.712 188.365 129.048 190.573 129.048C192.669 129.048 194.093 130.536 194.093 132.728V133.272H187.933C188.013 135.16 189.005 136.248 190.669 136.248C191.933 136.248 192.749 135.704 193.037 134.68H194.093C193.677 136.312 192.477 137.192 190.653 137.192ZM190.573 129.992C189.117 129.992 188.157 130.952 187.965 132.472H192.989C192.989 130.984 192.029 129.992 190.573 129.992ZM199.098 137.192C196.842 137.192 195.514 135.464 195.514 133.144C195.514 130.808 196.842 129.048 199.146 129.048C200.426 129.048 201.45 129.608 201.994 130.728V125.336H203.098V137H202.138L202.026 135.416C201.482 136.616 200.394 137.192 199.098 137.192ZM199.29 136.184C200.986 136.184 201.978 134.904 201.978 133.112C201.978 131.336 200.986 130.04 199.29 130.04C197.61 130.04 196.634 131.336 196.634 133.112C196.634 134.904 197.61 136.184 199.29 136.184ZM210.783 127.128C210.335 127.128 209.967 126.76 209.967 126.312C209.967 125.864 210.335 125.48 210.783 125.48C211.231 125.48 211.615 125.864 211.615 126.312C211.615 126.76 211.231 127.128 210.783 127.128ZM210.239 137V129.256H211.343V137H210.239ZM215.622 137H214.534V130.184H212.982V129.256H214.534V126.808H215.622V129.256H217.174V130.184H215.622V137ZM221.981 137.192C219.709 137.192 218.189 135.56 218.189 133.128C218.189 130.712 219.693 129.048 221.901 129.048C223.997 129.048 225.421 130.536 225.421 132.728V133.272H219.261C219.341 135.16 220.333 136.248 221.997 136.248C223.261 136.248 224.077 135.704 224.365 134.68H225.421C225.005 136.312 223.805 137.192 221.981 137.192ZM221.901 129.992C220.445 129.992 219.485 130.952 219.293 132.472H224.317C224.317 130.984 223.357 129.992 221.901 129.992ZM228.49 137H227.386V129.256H228.346L228.474 130.36C228.858 129.544 229.722 129.048 230.81 129.048C232.026 129.048 232.938 129.688 233.306 130.696C233.658 129.688 234.602 129.048 235.85 129.048C237.53 129.048 238.634 130.136 238.634 131.928V137H237.562V132.152C237.562 130.824 236.826 130.04 235.642 130.04C234.346 130.04 233.578 131.016 233.578 132.216V137H232.49V132.136C232.49 130.824 231.738 130.056 230.57 130.056C229.274 130.056 228.49 131.016 228.49 132.2V137ZM240.305 134.824H241.361C241.361 135.72 242.033 136.28 243.121 136.28C244.321 136.28 245.025 135.768 245.025 134.936C245.025 134.296 244.705 133.928 243.793 133.704L242.465 133.368C241.121 133.032 240.465 132.328 240.465 131.272C240.465 129.912 241.601 129.048 243.265 129.048C244.897 129.048 245.953 129.944 246.001 131.384H244.929C244.897 130.488 244.273 129.96 243.233 129.96C242.145 129.96 241.537 130.424 241.537 131.256C241.537 131.848 241.953 132.264 242.801 132.472L244.129 132.808C245.473 133.144 246.081 133.768 246.081 134.888C246.081 136.28 244.897 137.192 243.137 137.192C241.393 137.192 240.305 136.264 240.305 134.824ZM248.918 137.176C248.374 137.176 247.91 136.728 247.91 136.2C247.91 135.656 248.374 135.192 248.918 135.192C249.462 135.192 249.926 135.656 249.926 136.2C249.926 136.728 249.462 137.176 248.918 137.176ZM44.6654 148.44C42.0254 148.44 40.3614 150.392 40.3614 153.32C40.3614 156.296 42.1214 158.104 44.6974 158.104C46.6174 158.104 48.4894 157.176 48.4894 154.424V153.832H44.3454V152.808H49.5774V159.016H48.6654L48.5534 157.192C47.9454 158.328 46.5054 159.192 44.6494 159.192C41.4014 159.192 39.1614 156.856 39.1614 153.32C39.1614 149.816 41.4014 147.352 44.6814 147.352C47.0974 147.352 48.9694 148.728 49.4174 150.808H48.1694C47.6894 149.24 46.3454 148.44 44.6654 148.44ZM51.2814 155.128C51.2814 152.76 52.9454 151.048 55.2174 151.048C57.4894 151.048 59.1534 152.76 59.1534 155.128C59.1534 157.48 57.4894 159.192 55.2174 159.192C52.9454 159.192 51.2814 157.48 51.2814 155.128ZM52.4014 155.112C52.4014 156.936 53.5534 158.2 55.2174 158.2C56.8654 158.2 58.0334 156.936 58.0334 155.112C58.0334 153.32 56.8654 152.04 55.2174 152.04C53.5534 152.04 52.4014 153.32 52.4014 155.112ZM67.5327 159H66.4447V152.184H64.8927V151.256H66.4447V148.808H67.5327V151.256H69.0847V152.184H67.5327V159ZM70.1002 155.128C70.1002 152.76 71.7642 151.048 74.0362 151.048C76.3082 151.048 77.9722 152.76 77.9722 155.128C77.9722 157.48 76.3082 159.192 74.0362 159.192C71.7642 159.192 70.1002 157.48 70.1002 155.128ZM71.2202 155.112C71.2202 156.936 72.3722 158.2 74.0362 158.2C75.6842 158.2 76.8522 156.936 76.8522 155.112C76.8522 153.32 75.6842 152.04 74.0362 152.04C72.3722 152.04 71.2202 153.32 71.2202 155.112ZM85.6794 158.984H84.5754V147.336H85.6794V152.6C86.1754 151.672 87.1194 151.048 88.4154 151.048C90.4474 151.048 91.3594 152.312 91.3594 154.264V159H90.2554V154.504C90.2554 152.696 89.4074 152.056 88.2074 152.056C86.5434 152.056 85.6794 153.288 85.6794 154.776V158.984ZM93.2158 155.128C93.2158 152.76 94.8798 151.048 97.1518 151.048C99.4238 151.048 101.088 152.76 101.088 155.128C101.088 157.48 99.4238 159.192 97.1518 159.192C94.8798 159.192 93.2158 157.48 93.2158 155.128ZM94.3358 155.112C94.3358 156.936 95.4878 158.2 97.1518 158.2C98.7998 158.2 99.9678 156.936 99.9678 155.112C99.9678 153.32 98.7998 152.04 97.1518 152.04C95.4878 152.04 94.3358 153.32 94.3358 155.112ZM104.158 159H103.054V151.256H104.014L104.142 152.36C104.526 151.544 105.39 151.048 106.478 151.048C107.694 151.048 108.606 151.688 108.974 152.696C109.326 151.688 110.27 151.048 111.518 151.048C113.198 151.048 114.302 152.136 114.302 153.928V159H113.23V154.152C113.23 152.824 112.494 152.04 111.31 152.04C110.014 152.04 109.246 153.016 109.246 154.216V159H108.158V154.136C108.158 152.824 107.406 152.056 106.238 152.056C104.942 152.056 104.158 153.016 104.158 154.2V159ZM119.97 159.192C117.698 159.192 116.178 157.56 116.178 155.128C116.178 152.712 117.682 151.048 119.89 151.048C121.986 151.048 123.41 152.536 123.41 154.728V155.272H117.25C117.33 157.16 118.322 158.248 119.986 158.248C121.25 158.248 122.066 157.704 122.354 156.68H123.41C122.994 158.312 121.794 159.192 119.97 159.192ZM119.89 151.992C118.434 151.992 117.474 152.952 117.282 154.472H122.306C122.306 152.984 121.346 151.992 119.89 151.992ZM132.237 159.192C130.589 159.192 129.613 158.264 129.613 156.904C129.613 155.48 130.701 154.584 132.509 154.44L135.069 154.232V153.976C135.069 152.456 134.157 151.976 133.021 151.976C131.677 151.976 130.877 152.584 130.877 153.624H129.869C129.869 152.056 131.149 151.048 133.053 151.048C134.845 151.048 136.157 151.944 136.157 153.992V159H135.229L135.085 157.64C134.605 158.616 133.549 159.192 132.237 159.192ZM132.493 158.296C134.125 158.296 135.069 157.16 135.069 155.48V155.064L132.781 155.24C131.325 155.368 130.733 156.008 130.733 156.872C130.733 157.816 131.437 158.296 132.493 158.296ZM139.676 159H138.572V151.256H139.532L139.692 152.6C140.204 151.608 141.228 151.048 142.348 151.048C144.476 151.048 145.356 152.312 145.356 154.264V159H144.252V154.504C144.252 152.696 143.436 152.056 142.156 152.056C140.572 152.056 139.676 153.208 139.676 154.952V159ZM150.797 159.192C148.541 159.192 147.213 157.464 147.213 155.144C147.213 152.808 148.541 151.048 150.845 151.048C152.125 151.048 153.149 151.608 153.693 152.728V147.336H154.797V159H153.837L153.725 157.416C153.181 158.616 152.093 159.192 150.797 159.192ZM150.989 158.184C152.685 158.184 153.677 156.904 153.677 155.112C153.677 153.336 152.685 152.04 150.989 152.04C149.309 152.04 148.333 153.336 148.333 155.112C148.333 156.904 149.309 158.184 150.989 158.184ZM164.162 159.192C162.514 159.192 161.538 158.264 161.538 156.904C161.538 155.48 162.626 154.584 164.434 154.44L166.994 154.232V153.976C166.994 152.456 166.082 151.976 164.946 151.976C163.602 151.976 162.802 152.584 162.802 153.624H161.794C161.794 152.056 163.074 151.048 164.978 151.048C166.77 151.048 168.082 151.944 168.082 153.992V159H167.154L167.01 157.64C166.53 158.616 165.474 159.192 164.162 159.192ZM164.418 158.296C166.05 158.296 166.994 157.16 166.994 155.48V155.064L164.706 155.24C163.25 155.368 162.658 156.008 162.658 156.872C162.658 157.816 163.362 158.296 164.418 158.296ZM173.537 159.192C171.281 159.192 169.953 157.464 169.953 155.144C169.953 152.808 171.281 151.048 173.585 151.048C174.865 151.048 175.889 151.608 176.433 152.728V147.336H177.537V159H176.577L176.465 157.416C175.921 158.616 174.833 159.192 173.537 159.192ZM173.729 158.184C175.425 158.184 176.417 156.904 176.417 155.112C176.417 153.336 175.425 152.04 173.729 152.04C172.049 152.04 171.073 153.336 171.073 155.112C171.073 156.904 172.049 158.184 173.729 158.184ZM183.081 159.192C180.825 159.192 179.497 157.464 179.497 155.144C179.497 152.808 180.825 151.048 183.129 151.048C184.409 151.048 185.433 151.608 185.977 152.728V147.336H187.081V159H186.121L186.009 157.416C185.465 158.616 184.377 159.192 183.081 159.192ZM183.273 158.184C184.969 158.184 185.961 156.904 185.961 155.112C185.961 153.336 184.969 152.04 183.273 152.04C181.593 152.04 180.617 153.336 180.617 155.112C180.617 156.904 181.593 158.184 183.273 158.184ZM193.566 156.824H194.622C194.622 157.72 195.294 158.28 196.382 158.28C197.582 158.28 198.286 157.768 198.286 156.936C198.286 156.296 197.966 155.928 197.054 155.704L195.726 155.368C194.382 155.032 193.726 154.328 193.726 153.272C193.726 151.912 194.862 151.048 196.526 151.048C198.158 151.048 199.214 151.944 199.262 153.384H198.19C198.158 152.488 197.534 151.96 196.494 151.96C195.406 151.96 194.798 152.424 194.798 153.256C194.798 153.848 195.214 154.264 196.062 154.472L197.39 154.808C198.734 155.144 199.342 155.768 199.342 156.888C199.342 158.28 198.158 159.192 196.398 159.192C194.654 159.192 193.566 158.264 193.566 156.824ZM200.816 155.128C200.816 152.76 202.48 151.048 204.752 151.048C207.024 151.048 208.688 152.76 208.688 155.128C208.688 157.48 207.024 159.192 204.752 159.192C202.48 159.192 200.816 157.48 200.816 155.128ZM201.936 155.112C201.936 156.936 203.088 158.2 204.752 158.2C206.4 158.2 207.568 156.936 207.568 155.112C207.568 153.32 206.4 152.04 204.752 152.04C203.088 152.04 201.936 153.32 201.936 155.112ZM211.758 159H210.654V151.256H211.614L211.742 152.36C212.126 151.544 212.99 151.048 214.078 151.048C215.294 151.048 216.206 151.688 216.574 152.696C216.926 151.688 217.87 151.048 219.118 151.048C220.798 151.048 221.902 152.136 221.902 153.928V159H220.83V154.152C220.83 152.824 220.094 152.04 218.91 152.04C217.614 152.04 216.846 153.016 216.846 154.216V159H215.758V154.136C215.758 152.824 215.006 152.056 213.838 152.056C212.542 152.056 211.758 153.016 211.758 154.2V159ZM227.57 159.192C225.298 159.192 223.778 157.56 223.778 155.128C223.778 152.712 225.282 151.048 227.49 151.048C229.586 151.048 231.01 152.536 231.01 154.728V155.272H224.85C224.93 157.16 225.922 158.248 227.586 158.248C228.85 158.248 229.666 157.704 229.954 156.68H231.01C230.594 158.312 229.394 159.192 227.57 159.192ZM227.49 151.992C226.034 151.992 225.074 152.952 224.882 154.472H229.906C229.906 152.984 228.946 151.992 227.49 151.992ZM233.435 159.176C232.891 159.176 232.427 158.728 232.427 158.2C232.427 157.656 232.891 157.192 233.435 157.192C233.979 157.192 234.443 157.656 234.443 158.2C234.443 158.728 233.979 159.176 233.435 159.176Z" fill="#68656E"/>
</svg>
