<svg width="252" height="198" viewBox="0 0 252 198" fill="none" xmlns="http://www.w3.org/2000/svg">
<path opacity="0.2" d="M146 48H106C105.65 47.9979 105.307 47.9039 105.004 47.7276C104.702 47.5512 104.451 47.2985 104.277 46.9948C104.103 46.6911 104.012 46.3471 104.012 45.997C104.013 45.6469 104.105 45.3032 104.28 45C105.928 42.15 108 34.9525 108 26C108 21.2261 109.896 16.6477 113.272 13.2721C116.648 9.89642 121.226 8 126 8C130.774 8 135.352 9.89642 138.728 13.2721C142.104 16.6477 144 21.2261 144 26C144 34.955 146.075 42.15 147.725 45C147.9 45.3035 147.993 45.6478 147.993 45.9982C147.993 46.3487 147.902 46.6931 147.727 46.997C147.552 47.3008 147.301 47.5534 146.998 47.7294C146.695 47.9055 146.351 47.9988 146 48Z" fill="#938F9C"/>
<path d="M149.45 43.985C148.063 41.595 146 34.8325 146 26C146 20.6957 143.893 15.6086 140.142 11.8579C136.391 8.10714 131.304 6 126 6C120.696 6 115.609 8.10714 111.858 11.8579C108.107 15.6086 106 20.6957 106 26C106 34.835 103.935 41.595 102.548 43.985C102.193 44.5926 102.005 45.2829 102.003 45.9863C102.001 46.6896 102.184 47.3812 102.534 47.9912C102.884 48.6013 103.389 49.1082 103.997 49.4608C104.606 49.8135 105.297 49.9995 106 50H116.203C116.664 52.2579 117.891 54.2871 119.676 55.7444C121.462 57.2018 123.695 57.9978 126 57.9978C128.305 57.9978 130.538 57.2018 132.324 55.7444C134.109 54.2871 135.336 52.2579 135.798 50H146C146.703 49.9991 147.394 49.8128 148.002 49.4599C148.61 49.1071 149.115 48.6001 149.464 47.9901C149.814 47.3802 149.997 46.6888 149.995 45.9856C149.992 45.2825 149.804 44.5924 149.45 43.985ZM126 54C124.76 53.9996 123.55 53.6148 122.537 52.8984C121.524 52.1821 120.759 51.1695 120.345 50H131.655C131.242 51.1695 130.476 52.1821 129.463 52.8984C128.45 53.6148 127.24 53.9996 126 54ZM106 46C107.925 42.69 110 35.02 110 26C110 21.7565 111.686 17.6869 114.686 14.6863C117.687 11.6857 121.757 10 126 10C130.243 10 134.313 11.6857 137.314 14.6863C140.314 17.6869 142 21.7565 142 26C142 35.0125 144.07 42.6825 146 46H106Z" fill="#938F9C"/>
<path d="M25.3002 97.24L20.3602 88.38H23.2202L26.1002 93.7C26.3202 94.1 26.4602 94.42 26.6202 94.78C26.8002 94.42 26.8802 94.18 27.1402 93.7L30.0002 88.38H32.7802L27.8602 97.24V103H25.3002V97.24ZM31.5823 98.04C31.5823 94.96 33.8023 92.84 36.8623 92.84C39.9223 92.84 42.1423 94.96 42.1423 98.04C42.1423 101.12 39.9223 103.24 36.8623 103.24C33.8023 103.24 31.5823 101.12 31.5823 98.04ZM34.0223 98.04C34.0223 99.84 35.1823 101.06 36.8623 101.06C38.5423 101.06 39.7023 99.84 39.7023 98.04C39.7023 96.24 38.5423 95.02 36.8623 95.02C35.1823 95.02 34.0223 96.24 34.0223 98.04ZM50.542 93.12H52.982V103H50.722L50.542 101.68C49.942 102.62 48.662 103.26 47.342 103.26C45.062 103.26 43.722 101.72 43.722 99.3V93.12H46.162V98.44C46.162 100.32 46.902 101.08 48.262 101.08C49.802 101.08 50.542 100.18 50.542 98.3V93.12ZM63.3328 103H60.8928V88.12H63.3528V94.4C63.9728 93.44 65.1328 92.82 66.5528 92.82C68.9928 92.82 70.2728 94.36 70.2728 96.92V103H67.8328V97.5C67.8328 95.84 67.0128 95.04 65.7728 95.04C64.2328 95.04 63.3328 96.12 63.3328 97.6V103ZM75.6102 103.26C73.5102 103.26 72.2302 102.04 72.2302 100.18C72.2302 98.36 73.5502 97.22 75.8902 97.04L78.8502 96.82V96.6C78.8502 95.26 78.0502 94.72 76.8102 94.72C75.3702 94.72 74.5702 95.32 74.5702 96.36H72.4902C72.4902 94.22 74.2502 92.82 76.9302 92.82C79.5902 92.82 81.2302 94.26 81.2302 97V103H79.0902L78.9102 101.54C78.4902 102.56 77.1502 103.26 75.6102 103.26ZM76.4102 101.42C77.9102 101.42 78.8702 100.52 78.8702 99V98.48L76.8102 98.64C75.2902 98.78 74.7102 99.28 74.7102 100.08C74.7102 100.98 75.3102 101.42 76.4102 101.42ZM86.0366 103L82.1166 93.12H84.7166L86.4366 97.66C86.8566 98.84 87.1966 99.86 87.3166 100.4C87.4566 99.78 87.8166 98.74 88.2366 97.66L90.0366 93.12H92.5566L88.4366 103H86.0366ZM97.8909 103.26C94.9509 103.26 92.8909 101.12 92.8909 98.06C92.8909 94.96 94.9109 92.82 97.8109 92.82C100.771 92.82 102.651 94.8 102.651 97.88V98.62L95.2109 98.64C95.3909 100.38 96.3109 101.26 97.9309 101.26C99.2709 101.26 100.151 100.74 100.431 99.8H102.691C102.271 101.96 100.471 103.26 97.8909 103.26ZM97.8309 94.82C96.3909 94.82 95.5109 95.6 95.2709 97.08H100.231C100.231 95.72 99.2909 94.82 97.8309 94.82ZM107.044 103H104.604V93.12H106.864L107.064 94.4C107.684 93.4 108.884 92.82 110.224 92.82C112.704 92.82 113.984 94.36 113.984 96.92V103H111.544V97.5C111.544 95.84 110.724 95.04 109.464 95.04C107.964 95.04 107.044 96.08 107.044 97.68V103ZM119.09 90.06C119.09 91.74 117.97 93.04 116.37 93.24V92.28C117.23 92.12 117.85 91.58 117.85 90.88C117.69 90.94 117.51 90.98 117.29 90.98C116.57 90.98 115.99 90.48 115.99 89.6C115.99 88.72 116.59 88.1 117.47 88.1C118.41 88.1 119.09 88.86 119.09 90.06ZM124.975 103H122.535V95.16H120.635V93.12H122.535V90.04H124.975V93.12H126.895V95.16H124.975V103ZM133.243 97.84C133.243 94.96 135.123 92.8 137.943 92.8C139.423 92.8 140.583 93.42 141.163 94.48L141.303 93.12H143.563V102.5C143.563 105.8 141.583 107.86 138.383 107.86C135.543 107.86 133.603 106.24 133.303 103.6H135.743C135.903 104.88 136.883 105.64 138.383 105.64C140.063 105.64 141.143 104.58 141.143 102.94V101.3C140.523 102.22 139.303 102.8 137.883 102.8C135.083 102.8 133.243 100.7 133.243 97.84ZM135.703 97.78C135.703 99.44 136.763 100.68 138.363 100.68C140.043 100.68 141.083 99.5 141.083 97.78C141.083 96.1 140.063 94.94 138.363 94.94C136.743 94.94 135.703 96.16 135.703 97.78ZM145.508 98.04C145.508 94.96 147.728 92.84 150.788 92.84C153.848 92.84 156.068 94.96 156.068 98.04C156.068 101.12 153.848 103.24 150.788 103.24C147.728 103.24 145.508 101.12 145.508 98.04ZM147.948 98.04C147.948 99.84 149.108 101.06 150.788 101.06C152.468 101.06 153.628 99.84 153.628 98.04C153.628 96.24 152.468 95.02 150.788 95.02C149.108 95.02 147.948 96.24 147.948 98.04ZM161.265 103H158.825V95.16H156.925V93.12H158.825V90.04H161.265V93.12H163.185V95.16H161.265V103ZM168.335 103H165.895V95.16H163.995V93.12H165.895V90.04H168.335V93.12H170.255V95.16H168.335V103ZM176.094 103.26C173.154 103.26 171.094 101.12 171.094 98.06C171.094 94.96 173.114 92.82 176.014 92.82C178.974 92.82 180.854 94.8 180.854 97.88V98.62L173.414 98.64C173.594 100.38 174.514 101.26 176.134 101.26C177.474 101.26 178.354 100.74 178.634 99.8H180.894C180.474 101.96 178.674 103.26 176.094 103.26ZM176.034 94.82C174.594 94.82 173.714 95.6 173.474 97.08H178.434C178.434 95.72 177.494 94.82 176.034 94.82ZM185.247 103H182.807V93.12H185.067L185.267 94.4C185.887 93.4 187.087 92.82 188.427 92.82C190.907 92.82 192.187 94.36 192.187 96.92V103H189.747V97.5C189.747 95.84 188.927 95.04 187.667 95.04C186.167 95.04 185.247 96.08 185.247 97.68V103ZM202.915 103.26C200.815 103.26 199.535 102.04 199.535 100.18C199.535 98.36 200.855 97.22 203.195 97.04L206.155 96.82V96.6C206.155 95.26 205.355 94.72 204.115 94.72C202.675 94.72 201.875 95.32 201.875 96.36H199.795C199.795 94.22 201.555 92.82 204.235 92.82C206.895 92.82 208.535 94.26 208.535 97V103H206.395L206.215 101.54C205.795 102.56 204.455 103.26 202.915 103.26ZM203.715 101.42C205.215 101.42 206.175 100.52 206.175 99V98.48L204.115 98.64C202.595 98.78 202.015 99.28 202.015 100.08C202.015 100.98 202.615 101.42 203.715 101.42ZM213.372 103H210.932V93.12H213.192L213.392 94.4C214.012 93.4 215.212 92.82 216.552 92.82C219.032 92.82 220.312 94.36 220.312 96.92V103H217.872V97.5C217.872 95.84 217.052 95.04 215.792 95.04C214.292 95.04 213.372 96.08 213.372 97.68V103ZM221.654 107.58V105.54H223.114C224.074 105.54 224.674 105.32 225.094 104.16L225.374 103.42L221.394 93.12H223.974L226.514 100.32L229.194 93.12H231.714L226.874 105.2C226.134 107.04 225.094 107.8 223.474 107.8C222.794 107.8 222.194 107.72 221.654 107.58ZM53.0105 133H50.5705V123.12H52.8305L53.0305 124.4C53.6505 123.4 54.8505 122.82 56.1905 122.82C58.6705 122.82 59.9505 124.36 59.9505 126.92V133H57.5105V127.5C57.5105 125.84 56.6905 125.04 55.4305 125.04C53.9305 125.04 53.0105 126.08 53.0105 127.68V133ZM61.7679 128.04C61.7679 124.96 63.9879 122.84 67.0479 122.84C70.1079 122.84 72.3279 124.96 72.3279 128.04C72.3279 131.12 70.1079 133.24 67.0479 133.24C63.9879 133.24 61.7679 131.12 61.7679 128.04ZM64.2079 128.04C64.2079 129.84 65.3679 131.06 67.0479 131.06C68.7279 131.06 69.8879 129.84 69.8879 128.04C69.8879 126.24 68.7279 125.02 67.0479 125.02C65.3679 125.02 64.2079 126.24 64.2079 128.04ZM77.5243 133H75.0843V125.16H73.1843V123.12H75.0843V120.04H77.5243V123.12H79.4443V125.16H77.5243V133ZM82.1812 121.14C81.3412 121.14 80.6812 120.48 80.6812 119.66C80.6812 118.84 81.3412 118.2 82.1812 118.2C82.9812 118.2 83.6412 118.84 83.6412 119.66C83.6412 120.48 82.9812 121.14 82.1812 121.14ZM80.9612 133V123.12H83.4012V133H80.9612ZM92.8221 133V125.16H88.7821V133H86.3621V125.16H84.9421V123.12H86.3621V121.92C86.3621 119.24 87.7621 118.12 89.7621 118.12C90.1421 118.12 90.6021 118.14 91.0221 118.22V120.3H90.1621C89.0621 120.3 88.7821 120.94 88.7821 121.92V123.12H95.2621V133H92.8221ZM94.0421 121.1C93.2221 121.1 92.5821 120.46 92.5821 119.64C92.5821 118.84 93.2221 118.2 94.0421 118.2C94.8421 118.2 95.4821 118.84 95.4821 119.64C95.4821 120.46 94.8421 121.1 94.0421 121.1ZM97.1976 128.04C97.1976 124.98 99.2176 122.82 102.138 122.82C104.838 122.82 106.678 124.32 106.938 126.7H104.498C104.218 125.58 103.398 125 102.238 125C100.678 125 99.6376 126.18 99.6376 128.04C99.6376 129.9 100.598 131.06 102.158 131.06C103.378 131.06 104.238 130.46 104.498 129.38H106.958C106.658 131.68 104.738 133.26 102.158 133.26C99.1576 133.26 97.1976 131.18 97.1976 128.04ZM111.714 133.26C109.614 133.26 108.334 132.04 108.334 130.18C108.334 128.36 109.654 127.22 111.994 127.04L114.954 126.82V126.6C114.954 125.26 114.154 124.72 112.914 124.72C111.474 124.72 110.674 125.32 110.674 126.36H108.594C108.594 124.22 110.354 122.82 113.034 122.82C115.694 122.82 117.334 124.26 117.334 127V133H115.194L115.014 131.54C114.594 132.56 113.254 133.26 111.714 133.26ZM112.514 131.42C114.014 131.42 114.974 130.52 114.974 129V128.48L112.914 128.64C111.394 128.78 110.814 129.28 110.814 130.08C110.814 130.98 111.414 131.42 112.514 131.42ZM122.954 133H120.514V125.16H118.614V123.12H120.514V120.04H122.954V123.12H124.874V125.16H122.954V133ZM127.611 121.14C126.771 121.14 126.111 120.48 126.111 119.66C126.111 118.84 126.771 118.2 127.611 118.2C128.411 118.2 129.071 118.84 129.071 119.66C129.071 120.48 128.411 121.14 127.611 121.14ZM126.391 133V123.12H128.831V133H126.391ZM130.772 128.04C130.772 124.96 132.992 122.84 136.052 122.84C139.112 122.84 141.332 124.96 141.332 128.04C141.332 131.12 139.112 133.24 136.052 133.24C132.992 133.24 130.772 131.12 130.772 128.04ZM133.212 128.04C133.212 129.84 134.372 131.06 136.052 131.06C137.732 131.06 138.892 129.84 138.892 128.04C138.892 126.24 137.732 125.02 136.052 125.02C134.372 125.02 133.212 126.24 133.212 128.04ZM145.706 133H143.266V123.12H145.526L145.726 124.4C146.346 123.4 147.546 122.82 148.886 122.82C151.366 122.82 152.646 124.36 152.646 126.92V133H150.206V127.5C150.206 125.84 149.386 125.04 148.126 125.04C146.626 125.04 145.706 126.08 145.706 127.68V133ZM154.166 130H156.486C156.506 130.86 157.146 131.4 158.266 131.4C159.406 131.4 160.026 130.94 160.026 130.22C160.026 129.72 159.766 129.36 158.886 129.16L157.106 128.74C155.326 128.34 154.466 127.5 154.466 125.92C154.466 123.98 156.106 122.82 158.386 122.82C160.606 122.82 162.106 124.1 162.126 126.02H159.806C159.786 125.18 159.226 124.64 158.286 124.64C157.326 124.64 156.766 125.08 156.766 125.82C156.766 126.38 157.206 126.74 158.046 126.94L159.826 127.36C161.486 127.74 162.326 128.5 162.326 130.02C162.326 132.02 160.626 133.26 158.186 133.26C155.726 133.26 154.166 131.94 154.166 130ZM168.714 137.58V135.54H170.174C171.134 135.54 171.734 135.32 172.154 134.16L172.434 133.42L168.454 123.12H171.034L173.574 130.32L176.254 123.12H178.774L173.934 135.2C173.194 137.04 172.154 137.8 170.534 137.8C169.854 137.8 169.254 137.72 168.714 137.58ZM184.131 133.26C181.191 133.26 179.131 131.12 179.131 128.06C179.131 124.96 181.151 122.82 184.051 122.82C187.011 122.82 188.891 124.8 188.891 127.88V128.62L181.451 128.64C181.631 130.38 182.551 131.26 184.171 131.26C185.511 131.26 186.391 130.74 186.671 129.8H188.931C188.511 131.96 186.711 133.26 184.131 133.26ZM184.071 124.82C182.631 124.82 181.751 125.6 181.511 127.08H186.471C186.471 125.72 185.531 124.82 184.071 124.82ZM194.106 133H191.666V125.16H189.766V123.12H191.666V120.04H194.106V123.12H196.026V125.16H194.106V133ZM200.443 128.62H198.483C198.223 127.02 198.043 124.34 198.043 121.74V118.38H200.923V121.74C200.923 124.4 200.723 127.08 200.443 128.62ZM199.483 133.26C198.583 133.26 197.843 132.54 197.843 131.68C197.843 130.8 198.583 130.08 199.483 130.08C200.343 130.08 201.083 130.8 201.083 131.68C201.083 132.54 200.343 133.26 199.483 133.26Z" fill="#323135"/>
<path d="M14.0003 167L10.5603 155.432H12.1923L14.3043 162.504C14.4643 163.112 14.6243 163.72 14.7843 164.6C14.9763 163.672 15.1523 163.112 15.3283 162.504L17.5203 155.432H19.2163L21.3923 162.504C21.5843 163.128 21.7443 163.736 21.9203 164.6C22.1123 163.624 22.2723 163.032 22.4323 162.52L24.5603 155.432H26.1603L22.6723 167H21.1683L18.3683 157.848L15.5363 167H14.0003ZM30.0468 167.192C27.7428 167.192 26.1588 165.528 26.1588 163.096C26.1588 160.648 27.7108 158.952 29.9828 158.952C32.2068 158.952 33.6628 160.488 33.6628 162.808V163.368L27.6148 163.384C27.7268 165.032 28.5908 165.944 30.0788 165.944C31.2468 165.944 32.0148 165.464 32.2708 164.568H33.6788C33.2948 166.248 31.9828 167.192 30.0468 167.192ZM29.9828 160.216C28.6708 160.216 27.8388 161 27.6468 162.376H32.1588C32.1588 161.08 31.3108 160.216 29.9828 160.216ZM36.9984 156.6C36.9984 157.768 36.1824 158.712 35.0624 158.856V158.184C35.6864 158.072 36.1344 157.656 36.1344 157.144C36.0224 157.208 35.8784 157.24 35.6864 157.24C35.2064 157.24 34.7904 156.888 34.7904 156.264C34.7904 155.656 35.2064 155.208 35.8464 155.208C36.4864 155.208 36.9984 155.736 36.9984 156.6ZM40.8099 167H39.3059V155.224H40.8099V167ZM44.7599 167H43.2559V155.224H44.7599V167ZM54.0369 167.192C52.3569 167.192 51.3649 166.248 51.3649 164.824C51.3649 163.384 52.4369 162.488 54.2769 162.344L56.7409 162.152V161.928C56.7409 160.616 55.9569 160.152 54.9009 160.152C53.6369 160.152 52.9169 160.712 52.9169 161.656H51.6049C51.6049 160.024 52.9489 158.952 54.9649 158.952C56.9009 158.952 58.2129 159.976 58.2129 162.088V167H56.9329L56.7729 165.736C56.3729 166.632 55.3009 167.192 54.0369 167.192ZM54.4689 166.024C55.8929 166.024 56.7569 165.096 56.7569 163.624V163.208L54.7569 163.368C53.4289 163.496 52.8849 164.008 52.8849 164.776C52.8849 165.608 53.4929 166.024 54.4689 166.024ZM62.0318 167H60.5278V155.224H62.0318V167ZM67.8218 167.192C65.5178 167.192 63.9338 165.528 63.9338 163.096C63.9338 160.648 65.4858 158.952 67.7578 158.952C69.9818 158.952 71.4378 160.488 71.4378 162.808V163.368L65.3898 163.384C65.5018 165.032 66.3658 165.944 67.8538 165.944C69.0218 165.944 69.7898 165.464 70.0458 164.568H71.4538C71.0698 166.248 69.7578 167.192 67.8218 167.192ZM67.7578 160.216C66.4458 160.216 65.6138 161 65.4218 162.376H69.9338C69.9338 161.08 69.0858 160.216 67.7578 160.216ZM77.7977 159.112V160.488H77.1257C75.7017 160.488 74.8217 161.352 74.8217 162.856V167H73.3177V159.192H74.7257L74.8217 160.376C75.1417 159.56 75.9257 159.016 76.9977 159.016C77.2697 159.016 77.4937 159.048 77.7977 159.112ZM81.9288 167H80.4248V160.44H78.8888V159.176H80.4248V156.728H81.9288V159.176H83.4648V160.44H81.9288V167ZM88.8376 170.504V169.272H89.8456C90.5656 169.272 91.1416 169.16 91.5096 168.168L91.7816 167.416L88.6296 159.176H90.2136L92.4856 165.48L94.8056 159.176H96.3576L92.6616 168.76C92.1336 170.104 91.3496 170.664 90.1496 170.664C89.6536 170.664 89.2376 170.6 88.8376 170.504ZM96.9494 163.08C96.9494 160.664 98.6774 158.968 101.029 158.968C103.365 158.968 105.093 160.664 105.093 163.08C105.093 165.496 103.365 167.192 101.029 167.192C98.6774 167.192 96.9494 165.496 96.9494 163.08ZM98.4694 163.08C98.4694 164.712 99.5094 165.848 101.029 165.848C102.533 165.848 103.589 164.712 103.589 163.08C103.589 161.448 102.533 160.312 101.029 160.312C99.5094 160.312 98.4694 161.448 98.4694 163.08ZM112.179 159.176H113.667V167H112.323L112.163 165.816C111.715 166.632 110.675 167.192 109.523 167.192C107.699 167.192 106.675 165.96 106.675 164.04V159.176H108.179V163.544C108.179 165.224 108.899 165.864 110.051 165.864C111.427 165.864 112.179 164.984 112.179 163.304V159.176ZM122.304 167L119.744 159.176H121.296L122.592 163.24C122.768 163.816 122.928 164.408 123.072 165.096C123.2 164.408 123.408 163.752 123.584 163.24L124.896 159.176H126.432L127.728 163.24C127.856 163.624 128.112 164.536 128.24 165.096C128.368 164.472 128.512 163.928 128.736 163.24L130.048 159.176H131.616L128.944 167H127.52L126.16 162.808C125.904 162.024 125.744 161.416 125.664 160.984C125.584 161.368 125.44 161.88 125.152 162.824L123.792 167H122.304ZM134.609 166.984H133.105V155.224H134.609V160.376C135.105 159.528 136.049 158.952 137.265 158.952C139.265 158.952 140.225 160.216 140.225 162.216V167H138.721V162.552C138.721 160.968 137.969 160.328 136.849 160.328C135.393 160.328 134.609 161.384 134.609 162.728V166.984ZM145.884 167.192C143.58 167.192 141.996 165.528 141.996 163.096C141.996 160.648 143.548 158.952 145.82 158.952C148.044 158.952 149.5 160.488 149.5 162.808V163.368L143.452 163.384C143.564 165.032 144.428 165.944 145.916 165.944C147.084 165.944 147.852 165.464 148.108 164.568H149.516C149.132 166.248 147.82 167.192 145.884 167.192ZM145.82 160.216C144.508 160.216 143.676 161 143.484 162.376H147.996C147.996 161.08 147.148 160.216 145.82 160.216ZM152.884 167H151.38V159.176H152.74L152.9 160.376C153.396 159.48 154.388 158.952 155.492 158.952C157.556 158.952 158.5 160.216 158.5 162.216V167H156.996V162.552C156.996 160.968 156.26 160.328 155.108 160.328C153.7 160.328 152.884 161.336 152.884 162.856V167ZM164.718 164.728H166.158C166.158 165.528 166.766 166.008 167.758 166.008C168.814 166.008 169.422 165.576 169.422 164.856C169.422 164.328 169.166 164.008 168.35 163.8L166.974 163.48C165.582 163.144 164.926 162.456 164.926 161.304C164.926 159.864 166.142 158.952 167.87 158.952C169.582 158.952 170.702 159.912 170.734 161.4H169.294C169.262 160.616 168.734 160.12 167.822 160.12C166.878 160.12 166.35 160.536 166.35 161.256C166.35 161.784 166.734 162.136 167.502 162.328L168.878 162.664C170.206 162.984 170.862 163.592 170.862 164.76C170.862 166.248 169.582 167.192 167.726 167.192C165.886 167.192 164.718 166.216 164.718 164.728ZM172.218 163.08C172.218 160.664 173.946 158.968 176.298 158.968C178.634 158.968 180.362 160.664 180.362 163.08C180.362 165.496 178.634 167.192 176.298 167.192C173.946 167.192 172.218 165.496 172.218 163.08ZM173.738 163.08C173.738 164.712 174.778 165.848 176.298 165.848C177.802 165.848 178.858 164.712 178.858 163.08C178.858 161.448 177.802 160.312 176.298 160.312C174.778 160.312 173.738 161.448 173.738 163.08ZM183.731 167H182.227V159.176H183.571L183.715 160.2C184.115 159.464 184.947 158.952 186.051 158.952C187.267 158.952 188.131 159.56 188.531 160.536C188.899 159.56 189.843 158.952 191.059 158.952C192.851 158.952 193.939 160.072 193.939 161.88V167H192.467V162.248C192.467 161.016 191.779 160.312 190.723 160.312C189.587 160.312 188.835 161.112 188.835 162.36V167H187.347V162.232C187.347 161 186.675 160.328 185.619 160.328C184.483 160.328 183.731 161.112 183.731 162.36V167ZM199.6 167.192C197.296 167.192 195.712 165.528 195.712 163.096C195.712 160.648 197.264 158.952 199.536 158.952C201.76 158.952 203.216 160.488 203.216 162.808V163.368L197.168 163.384C197.28 165.032 198.144 165.944 199.632 165.944C200.8 165.944 201.568 165.464 201.824 164.568H203.232C202.848 166.248 201.536 167.192 199.6 167.192ZM199.536 160.216C198.224 160.216 197.392 161 197.2 162.376H201.712C201.712 161.08 200.864 160.216 199.536 160.216ZM207.226 167H205.722V160.44H204.186V159.176H205.722V156.728H207.226V159.176H208.762V160.44H207.226V167ZM211.815 166.984H210.311V155.224H211.815V160.376C212.311 159.528 213.255 158.952 214.471 158.952C216.471 158.952 217.431 160.216 217.431 162.216V167H215.927V162.552C215.927 160.968 215.175 160.328 214.055 160.328C212.599 160.328 211.815 161.384 211.815 162.728V166.984ZM220.451 157.32C219.907 157.32 219.459 156.872 219.459 156.328C219.459 155.768 219.907 155.336 220.451 155.336C220.995 155.336 221.443 155.768 221.443 156.328C221.443 156.872 220.995 157.32 220.451 157.32ZM219.715 167V159.176H221.219V167H219.715ZM225.106 167H223.602V159.176H224.962L225.122 160.376C225.618 159.48 226.61 158.952 227.714 158.952C229.778 158.952 230.722 160.216 230.722 162.216V167H229.218V162.552C229.218 160.968 228.482 160.328 227.33 160.328C225.922 160.328 225.106 161.336 225.106 162.856V167ZM232.509 162.888C232.509 160.68 233.933 158.952 236.205 158.952C237.469 158.952 238.445 159.528 238.941 160.504L239.053 159.176H240.397V166.68C240.397 169.144 238.877 170.712 236.477 170.712C234.349 170.712 232.893 169.512 232.605 167.528H234.109C234.301 168.68 235.165 169.352 236.477 169.352C237.949 169.352 238.909 168.392 238.909 166.904V165.336C238.397 166.248 237.373 166.792 236.141 166.792C233.917 166.792 232.509 165.08 232.509 162.888ZM234.013 162.856C234.013 164.328 234.925 165.48 236.397 165.48C237.917 165.48 238.845 164.392 238.845 162.856C238.845 161.352 237.949 160.264 236.413 160.264C234.909 160.264 234.013 161.416 234.013 162.856ZM74.6338 188.096C74.6338 185.648 76.1858 183.952 78.4738 183.952C80.4418 183.952 81.8178 185.072 82.0898 186.816H80.5858C80.3298 185.824 79.5298 185.296 78.5218 185.296C77.0978 185.296 76.1218 186.384 76.1218 188.08C76.1218 189.76 77.0338 190.848 78.4578 190.848C79.5298 190.848 80.3298 190.288 80.6018 189.36H82.1058C81.8018 191.056 80.3458 192.192 78.4578 192.192C76.1538 192.192 74.6338 190.56 74.6338 188.096ZM83.3807 188.08C83.3807 185.664 85.1087 183.968 87.4607 183.968C89.7967 183.968 91.5247 185.664 91.5247 188.08C91.5247 190.496 89.7967 192.192 87.4607 192.192C85.1087 192.192 83.3807 190.496 83.3807 188.08ZM84.9007 188.08C84.9007 189.712 85.9407 190.848 87.4607 190.848C88.9647 190.848 90.0207 189.712 90.0207 188.08C90.0207 186.448 88.9647 185.312 87.4607 185.312C85.9407 185.312 84.9007 186.448 84.9007 188.08ZM92.8776 188.08C92.8776 185.664 94.6056 183.968 96.9576 183.968C99.2936 183.968 101.022 185.664 101.022 188.08C101.022 190.496 99.2936 192.192 96.9576 192.192C94.6056 192.192 92.8776 190.496 92.8776 188.08ZM94.3976 188.08C94.3976 189.712 95.4376 190.848 96.9576 190.848C98.4616 190.848 99.5176 189.712 99.5176 188.08C99.5176 186.448 98.4616 185.312 96.9576 185.312C95.4376 185.312 94.3976 186.448 94.3976 188.08ZM104.422 192H102.918V180.224H104.422V192ZM112.915 191.984H111.411V180.224H112.915V185.376C113.411 184.528 114.355 183.952 115.571 183.952C117.571 183.952 118.531 185.216 118.531 187.216V192H117.027V187.552C117.027 185.968 116.275 185.328 115.155 185.328C113.699 185.328 112.915 186.384 112.915 187.728V191.984ZM123.103 192.192C121.423 192.192 120.431 191.248 120.431 189.824C120.431 188.384 121.503 187.488 123.343 187.344L125.807 187.152V186.928C125.807 185.616 125.023 185.152 123.967 185.152C122.703 185.152 121.983 185.712 121.983 186.656H120.671C120.671 185.024 122.015 183.952 124.031 183.952C125.967 183.952 127.279 184.976 127.279 187.088V192H125.999L125.839 190.736C125.439 191.632 124.367 192.192 123.103 192.192ZM123.535 191.024C124.959 191.024 125.823 190.096 125.823 188.624V188.208L123.823 188.368C122.495 188.496 121.951 189.008 121.951 189.776C121.951 190.608 122.559 191.024 123.535 191.024ZM129.561 195.504V184.176H130.921L131.033 185.584C131.561 184.512 132.617 183.952 133.865 183.952C136.105 183.952 137.497 185.632 137.497 188.032C137.497 190.416 136.185 192.208 133.865 192.208C132.617 192.208 131.577 191.68 131.065 190.72V195.504H129.561ZM131.081 188.096C131.081 189.696 132.009 190.848 133.545 190.848C135.081 190.848 135.993 189.696 135.993 188.096C135.993 186.48 135.081 185.328 133.545 185.328C132.009 185.328 131.081 186.464 131.081 188.096ZM139.355 195.504V184.176H140.715L140.827 185.584C141.355 184.512 142.411 183.952 143.659 183.952C145.899 183.952 147.291 185.632 147.291 188.032C147.291 190.416 145.979 192.208 143.659 192.208C142.411 192.208 141.371 191.68 140.859 190.72V195.504H139.355ZM140.875 188.096C140.875 189.696 141.803 190.848 143.339 190.848C144.875 190.848 145.787 189.696 145.787 188.096C145.787 186.48 144.875 185.328 143.339 185.328C141.803 185.328 140.875 186.464 140.875 188.096ZM152.525 192.192C150.221 192.192 148.637 190.528 148.637 188.096C148.637 185.648 150.189 183.952 152.461 183.952C154.685 183.952 156.141 185.488 156.141 187.808V188.368L150.093 188.384C150.205 190.032 151.069 190.944 152.557 190.944C153.725 190.944 154.493 190.464 154.749 189.568H156.157C155.773 191.248 154.461 192.192 152.525 192.192ZM152.461 185.216C151.149 185.216 150.317 186 150.125 187.376H154.637C154.637 186.08 153.789 185.216 152.461 185.216ZM159.525 192H158.021V184.176H159.381L159.541 185.376C160.037 184.48 161.029 183.952 162.133 183.952C164.197 183.952 165.141 185.216 165.141 187.216V192H163.637V187.552C163.637 185.968 162.901 185.328 161.749 185.328C160.341 185.328 159.525 186.336 159.525 187.856V192ZM166.69 189.728H168.13C168.13 190.528 168.738 191.008 169.73 191.008C170.786 191.008 171.394 190.576 171.394 189.856C171.394 189.328 171.138 189.008 170.322 188.8L168.946 188.48C167.554 188.144 166.898 187.456 166.898 186.304C166.898 184.864 168.114 183.952 169.842 183.952C171.554 183.952 172.674 184.912 172.706 186.4H171.266C171.234 185.616 170.706 185.12 169.794 185.12C168.85 185.12 168.322 185.536 168.322 186.256C168.322 186.784 168.706 187.136 169.474 187.328L170.85 187.664C172.178 187.984 172.834 188.592 172.834 189.76C172.834 191.248 171.554 192.192 169.698 192.192C167.858 192.192 166.69 191.216 166.69 189.728ZM175.728 192.192C175.104 192.192 174.576 191.68 174.576 191.072C174.576 190.448 175.104 189.936 175.728 189.936C176.336 189.936 176.864 190.448 176.864 191.072C176.864 191.68 176.336 192.192 175.728 192.192Z" fill="#68656E"/>
</svg>
