<svg width="23" height="22" viewBox="0 0 23 22" fill="none" xmlns="http://www.w3.org/2000/svg">
<g clip-path="url(#clip0_3201_24)">
<path d="M15.8753 0.0109944C15.8285 -0.0412556 14.1441 0.0316194 12.6784 1.62249C11.2126 3.21199 11.4381 5.03524 11.4711 5.08199C11.5041 5.12874 13.5611 5.20162 14.8743 3.35224C16.1874 1.50287 15.922 0.0646194 15.8753 0.0109944ZM20.432 16.1439C20.366 16.0119 17.2351 14.4471 17.5266 11.4386C17.8181 8.43012 19.8298 7.60374 19.8614 7.51437C19.893 7.42499 19.0405 6.42812 18.1371 5.92349C17.4737 5.56806 16.7397 5.36424 15.988 5.32674C15.8395 5.32262 15.3239 5.19612 14.2638 5.48624C13.5653 5.67737 11.9909 6.29612 11.5578 6.32087C11.1233 6.34562 9.83077 5.60312 8.44064 5.40649C7.55102 5.23462 6.60777 5.58662 5.93264 5.85749C5.25889 6.127 3.97739 6.89424 3.0809 8.93337C2.1844 10.9711 2.65327 14.1996 2.98877 15.2034C3.32427 16.2071 3.84814 17.8489 4.73914 19.0479C5.53114 20.4009 6.58165 21.34 7.02027 21.659C7.45889 21.978 8.69639 22.1897 9.55439 21.7511C10.2446 21.3276 11.4904 21.0842 11.9826 21.1021C12.4735 21.12 13.4415 21.3139 14.4329 21.8432C15.218 22.1141 15.9605 22.0014 16.7044 21.6989C17.4483 21.395 18.5249 20.2427 19.7816 17.9066C20.2583 16.8204 20.4751 16.2328 20.432 16.1439Z" fill="black"/>
<path d="M15.8753 0.0109944C15.8285 -0.0412556 14.1441 0.0316194 12.6784 1.62249C11.2126 3.21199 11.4381 5.03524 11.4711 5.08199C11.5041 5.12874 13.5611 5.20162 14.8743 3.35224C16.1874 1.50287 15.922 0.0646194 15.8753 0.0109944ZM20.432 16.1439C20.366 16.0119 17.2351 14.4471 17.5266 11.4386C17.8181 8.43012 19.8298 7.60374 19.8614 7.51437C19.893 7.42499 19.0405 6.42812 18.1371 5.92349C17.4737 5.56806 16.7397 5.36424 15.988 5.32674C15.8395 5.32262 15.3239 5.19612 14.2638 5.48624C13.5653 5.67737 11.9909 6.29612 11.5578 6.32087C11.1233 6.34562 9.83077 5.60312 8.44064 5.40649C7.55102 5.23462 6.60777 5.58662 5.93264 5.85749C5.25889 6.127 3.97739 6.89424 3.0809 8.93337C2.1844 10.9711 2.65327 14.1996 2.98877 15.2034C3.32427 16.2071 3.84814 17.8489 4.73914 19.0479C5.53114 20.4009 6.58165 21.34 7.02027 21.659C7.45889 21.978 8.69639 22.1897 9.55439 21.7511C10.2446 21.3276 11.4904 21.0842 11.9826 21.1021C12.4735 21.12 13.4415 21.3139 14.4329 21.8432C15.218 22.1141 15.9605 22.0014 16.7044 21.6989C17.4483 21.395 18.5249 20.2427 19.7816 17.9066C20.2583 16.8204 20.4751 16.2328 20.432 16.1439Z" fill="black"/>
</g>
<defs>
<clipPath id="clip0_3201_24">
<rect width="22" height="22" fill="white" transform="translate(0.5)"/>
</clipPath>
</defs>
</svg>
