<svg width="18" height="11" viewBox="0 0 18 11" fill="none" xmlns="http://www.w3.org/2000/svg">
<path d="M17.2959 2.79586L9.79593 10.2959C9.69141 10.4007 9.56722 10.484 9.43047 10.5407C9.29373 10.5975 9.14712 10.6267 8.99905 10.6267C8.85099 10.6267 8.70438 10.5975 8.56763 10.5407C8.43089 10.484 8.30669 10.4007 8.20218 10.2959L0.702177 2.79586C0.490833 2.58451 0.372101 2.29787 0.372101 1.99898C0.372101 1.7001 0.490833 1.41345 0.702177 1.20211C0.913522 0.990763 1.20017 0.872031 1.49905 0.872031C1.79794 0.872031 2.08458 0.990763 2.29593 1.20211L8.99999 7.90617L15.7041 1.20117C15.9154 0.989826 16.202 0.871094 16.5009 0.871094C16.7998 0.871094 17.0865 0.989826 17.2978 1.20117C17.5091 1.41252 17.6279 1.69916 17.6279 1.99805C17.6279 2.29693 17.5091 2.58358 17.2978 2.79492L17.2959 2.79586Z" fill="#323135"/>
</svg>
