<svg width="9" height="24" viewBox="0 0 9 24" fill="none" xmlns="http://www.w3.org/2000/svg">
<path d="M7.79998 2.40002L15.3375 9.93752L11.1375 14.1375L0.824982 3.82502L7.79998 2.40002Z" fill="#ED4C5C"/>
<path d="M3.975 2.17502C2.025 2.51252 0.599997 3.18752 0.749997 3.71252C0.937497 4.23752 2.6625 4.38752 4.65 4.05002C6.6 3.67502 8.0625 3.00002 7.875 2.47502C7.6875 1.95002 5.925 1.83752 3.975 2.17502Z" fill="#ED4C5C"/>
<path d="M4.04999 2.17496C2.21249 2.47496 0.862488 3.14996 1.04999 3.63746C1.23749 4.12496 2.84999 4.23746 4.68749 3.93746C6.52499 3.63746 7.87499 2.96246 7.68749 2.51246C7.49999 1.98746 5.88749 1.83746 4.04999 2.17496Z" fill="#FF8080"/>
<path d="M6.32062 9.88618L11.1465 5.0603L17.4574 11.3712L12.6311 16.1974L6.32062 9.88618Z" fill="#E8E8E8"/>
</svg>
