<svg width="58" height="53" viewBox="0 0 58 53" fill="none" xmlns="http://www.w3.org/2000/svg">
<path d="M24 48.5C24 49.2911 23.7654 50.0645 23.3259 50.7223C22.8864 51.3801 22.2616 51.8928 21.5307 52.1955C20.7998 52.4983 19.9956 52.5775 19.2196 52.4231C18.4437 52.2688 17.731 51.8878 17.1716 51.3284C16.6122 50.769 16.2312 50.0563 16.0769 49.2804C15.9225 48.5044 16.0017 47.7002 16.3045 46.9693C16.6072 46.2384 17.1199 45.6137 17.7777 45.1741C18.4355 44.7346 19.2089 44.5 20 44.5C21.0609 44.5 22.0783 44.9214 22.8284 45.6716C23.5786 46.4217 24 47.4391 24 48.5ZM46 44.5C45.2089 44.5 44.4355 44.7346 43.7777 45.1741C43.1199 45.6137 42.6072 46.2384 42.3045 46.9693C42.0017 47.7002 41.9225 48.5044 42.0769 49.2804C42.2312 50.0563 42.6122 50.769 43.1716 51.3284C43.731 51.8878 44.4437 52.2688 45.2196 52.4231C45.9956 52.5775 46.7998 52.4983 47.5307 52.1955C48.2616 51.8928 48.8864 51.3801 49.3259 50.7223C49.7654 50.0645 50 49.2911 50 48.5C50 47.4391 49.5786 46.4217 48.8284 45.6716C48.0783 44.9214 47.0609 44.5 46 44.5ZM57.9125 13.0875L50.78 36.265C50.4064 37.4937 49.6468 38.5692 48.6137 39.3321C47.5806 40.0949 46.3292 40.5045 45.045 40.5H21.0175C19.7149 40.4951 18.449 40.0684 17.4093 39.2838C16.3695 38.4991 15.612 37.3988 15.25 36.1475L6.205 4.5H2C1.46957 4.5 0.960859 4.28929 0.585787 3.91421C0.210714 3.53914 0 3.03043 0 2.5C0 1.96957 0.210714 1.46086 0.585787 1.08579C0.960859 0.710714 1.46957 0.5 2 0.5H6.205C7.07352 0.502881 7.91776 0.78697 8.61133 1.30974C9.30491 1.83252 9.81053 2.56586 10.0525 3.4L12.08 10.5H56C56.313 10.4999 56.6216 10.5732 56.9011 10.7141C57.1806 10.855 57.4231 11.0595 57.6091 11.3112C57.7951 11.5629 57.9195 11.8547 57.9722 12.1633C58.0249 12.4718 58.0044 12.7883 57.9125 13.0875ZM53.2925 14.5H13.2225L19.095 35.05C19.2145 35.4677 19.4667 35.8352 19.8136 36.0968C20.1604 36.3584 20.583 36.4999 21.0175 36.5H45.045C45.473 36.5002 45.8897 36.363 46.2339 36.1088C46.5782 35.8545 46.8318 35.4966 46.9575 35.0875L53.2925 14.5Z" fill="#A7A5AF"/>
</svg>
