<svg width="24" height="16" viewBox="0 0 24 16" fill="none" xmlns="http://www.w3.org/2000/svg">
<path d="M16 8C16 10.2091 14.2091 12 12 12C9.79086 12 8 10.2091 8 8C8 5.79086 9.79086 4 12 4C14.2091 4 16 5.79086 16 8ZM14 8C14 6.89544 13.1046 6 12 6C10.8954 6 10 6.89544 10 8C10 9.10456 10.8954 10 12 10C13.1046 10 14 9.10456 14 8Z" fill="#323135"/>
<path d="M0 2.5C0 1.11928 1.11928 0 2.5 0H21.5C22.8808 0 24 1.11928 24 2.5V13.5C24 14.8808 22.8808 16 21.5 16H2.5C1.11928 16 0 14.8808 0 13.5V2.5ZM2.5 2C2.22386 2 2 2.22386 2 2.5V4H3C3.55228 4 4 3.55228 4 3V2H2.5ZM2 13.5C2 13.7761 2.22386 14 2.5 14H4V13C4 12.4477 3.55228 12 3 12H2V13.5ZM6 13V14H18V13C18 11.3431 19.3432 10 21 10H22V6H21C19.3432 6 18 4.65686 18 3V2H6V3C6 4.65686 4.65686 6 3 6H2V10H3C4.65686 10 6 11.3431 6 13ZM20 14H21.5C21.7762 14 22 13.7761 22 13.5V12H21C20.4478 12 20 12.4477 20 13V14ZM22 4V2.5C22 2.22386 21.7762 2 21.5 2H20V3C20 3.55228 20.4478 4 21 4H22Z" fill="#323135"/>
</svg>
