<svg width="65" height="65" viewBox="0 0 65 65" fill="none" xmlns="http://www.w3.org/2000/svg">
<path d="M46.412 23.463C46.6387 23.6893 46.8185 23.9582 46.9411 24.2541C47.0638 24.55 47.1269 24.8672 47.1269 25.1875C47.1269 25.5078 47.0638 25.825 46.9411 26.1209C46.8185 26.4168 46.6387 26.6857 46.412 26.912L29.3495 43.9745C29.1232 44.2012 28.8543 44.381 28.5584 44.5036C28.2625 44.6263 27.9453 44.6894 27.625 44.6894C27.3047 44.6894 26.9875 44.6263 26.6916 44.5036C26.3957 44.381 26.1269 44.2012 25.9005 43.9745L18.588 36.662C18.1306 36.2047 17.8737 35.5843 17.8737 34.9375C17.8737 34.2907 18.1306 33.6703 18.588 33.213C19.0454 32.7556 19.6657 32.4986 20.3125 32.4986C20.9593 32.4986 21.5797 32.7556 22.037 33.213L27.625 38.804L42.963 23.463C43.1894 23.2363 43.4582 23.0566 43.7541 22.9339C44.05 22.8112 44.3672 22.7481 44.6875 22.7481C45.0078 22.7481 45.325 22.8112 45.6209 22.9339C45.9168 23.0566 46.1857 23.2363 46.412 23.463ZM64.1875 32.5C64.1875 38.7672 62.3291 44.8936 58.8472 50.1046C55.3653 55.3156 50.4164 59.3771 44.6263 61.7754C38.8362 64.1738 32.4649 64.8013 26.3181 63.5786C20.1713 62.356 14.5251 59.338 10.0936 54.9064C5.66199 50.4749 2.64405 44.8287 1.42138 38.6819C0.198712 32.5352 0.82623 26.1639 3.22458 20.3737C5.62293 14.5836 9.6844 9.63467 14.8954 6.15281C20.1064 2.67094 26.2328 0.8125 32.5 0.8125C40.9013 0.821372 48.956 4.16272 54.8967 10.1034C60.8373 16.044 64.1786 24.0987 64.1875 32.5ZM59.3125 32.5C59.3125 27.197 57.74 22.0131 54.7938 17.6038C51.8476 13.1945 47.6601 9.75785 42.7607 7.72848C37.8614 5.69911 32.4703 5.16813 27.2692 6.20269C22.068 7.23726 17.2905 9.7909 13.5407 13.5407C9.79092 17.2905 7.23727 22.068 6.20271 27.2691C5.16814 32.4703 5.69912 37.8614 7.72849 42.7607C9.75787 47.66 13.1945 51.8476 17.6038 54.7938C22.0131 57.74 27.197 59.3125 32.5 59.3125C39.6087 59.3044 46.4238 56.477 51.4504 51.4504C56.477 46.4238 59.3045 39.6086 59.3125 32.5Z" fill="#0C9409"/>
</svg>
