<svg width="22" height="22" viewBox="0 0 22 22" fill="none" xmlns="http://www.w3.org/2000/svg">
<path d="M6.99908 21V21.75H7.30974L7.52941 21.5303L6.99908 21ZM20.9991 7L21.5294 7.53033C21.8223 7.23744 21.8223 6.76256 21.5294 6.46967L20.9991 7ZM1 15L0.469652 14.4697L0.25 14.6894V15H1ZM14.9991 1L15.5294 0.46967C15.3888 0.329015 15.198 0.249997 14.9991 0.25C14.8001 0.250003 14.6094 0.329027 14.4687 0.469687L14.9991 1ZM1 21H0.25V21.75H1V21ZM7.52941 21.5303L21.5294 7.53033L20.4687 6.46967L6.46875 20.4697L7.52941 21.5303ZM1.53035 15.5303L15.5294 1.53031L14.4687 0.469687L0.469652 14.4697L1.53035 15.5303ZM14.4687 1.53033L20.4687 7.53033L21.5294 6.46967L15.5294 0.46967L14.4687 1.53033ZM6.99908 20.25H1V21.75H6.99908V20.25ZM1.75 21V15H0.25V21H1.75ZM10.4697 5.53033L16.4697 11.5303L17.5303 10.4697L11.5303 4.46967L10.4697 5.53033Z" fill="#323135"/>
</svg>
