<svg width="35" height="33" viewBox="0 0 35 33" fill="none" xmlns="http://www.w3.org/2000/svg">
<path d="M1.62305 1.44928H7.42015L11.3042 20.8551C11.4367 21.5223 11.7997 22.1217 12.3296 22.5483C12.8595 22.9748 13.5226 23.2014 14.2028 23.1884H28.2897C28.9699 23.2014 29.6329 22.9748 30.1628 22.5483C30.6927 22.1217 31.0557 21.5223 31.1883 20.8551L33.5071 8.69565H8.86942M14.6665 30.4348C14.6665 31.2352 14.0177 31.8841 13.2172 31.8841C12.4168 31.8841 11.768 31.2352 11.768 30.4348C11.768 29.6344 12.4168 28.9855 13.2172 28.9855C14.0177 28.9855 14.6665 29.6344 14.6665 30.4348ZM30.6085 30.4348C30.6085 31.2352 29.9597 31.8841 29.1593 31.8841C28.3589 31.8841 27.71 31.2352 27.71 30.4348C27.71 29.6344 28.3589 28.9855 29.1593 28.9855C29.9597 28.9855 30.6085 29.6344 30.6085 30.4348Z" stroke="#323135" stroke-width="2.17391" stroke-linecap="round" stroke-linejoin="round"/>
</svg>
