<svg width="23" height="20" viewBox="0 0 23 20" fill="none" xmlns="http://www.w3.org/2000/svg">
<path d="M20.465 2.60999C19.9542 2.099 19.3478 1.69364 18.6804 1.41708C18.0129 1.14052 17.2975 0.998169 16.575 0.998169C15.8525 0.998169 15.1371 1.14052 14.4696 1.41708C13.8022 1.69364 13.1958 2.099 12.685 2.60999L11.625 3.66999L10.565 2.60999C9.5333 1.5783 8.13403 0.998704 6.675 0.998704C5.21596 0.998704 3.81669 1.5783 2.785 2.60999C1.7533 3.64169 1.17371 5.04096 1.17371 6.49999C1.17371 7.95903 1.7533 9.3583 2.785 10.39L3.845 11.45L11.625 19.23L19.405 11.45L20.465 10.39C20.976 9.87924 21.3813 9.27281 21.6579 8.60535C21.9345 7.93789 22.0768 7.22248 22.0768 6.49999C22.0768 5.77751 21.9345 5.0621 21.6579 4.39464C21.3813 3.72718 20.976 3.12075 20.465 2.60999Z" stroke="#938F9C" stroke-width="1.5" stroke-linecap="round" stroke-linejoin="round"/>
</svg>
