<svg width="16" height="16" viewBox="0 0 16 16" fill="none" xmlns="http://www.w3.org/2000/svg">
<path opacity="0.4" d="M10.9934 14.6668H5.00672C2.66672 14.6668 2.16006 13.3268 2.35339 11.6868L2.95339 6.68683C3.10672 5.3935 3.33339 4.3335 5.60005 4.3335H10.4001C12.6667 4.3335 12.8934 5.3935 13.0467 6.68683L13.5467 10.8535L13.6467 11.6868C13.6534 11.7402 13.6601 11.7935 13.6667 11.8468C13.8067 13.4135 13.2601 14.6668 10.9934 14.6668Z" fill="#452CE8"/>
<path d="M10.6667 5.8335C10.3933 5.8335 10.1667 5.60683 10.1667 5.3335V3.00016C10.1667 2.28016 9.72001 1.8335 9.00001 1.8335H7.00001C6.28001 1.8335 5.83334 2.28016 5.83334 3.00016V5.3335C5.83334 5.60683 5.60668 5.8335 5.33334 5.8335C5.06001 5.8335 4.83334 5.60683 4.83334 5.3335V3.00016C4.83334 1.72683 5.72668 0.833496 7.00001 0.833496H9.00001C10.2733 0.833496 11.1667 1.72683 11.1667 3.00016V5.3335C11.1667 5.60683 10.94 5.8335 10.6667 5.8335Z" fill="#452CE8"/>
<path d="M13.6667 11.8464C13.6467 11.853 13.6267 11.853 13.6067 11.853H5.33334C5.06001 11.853 4.83334 11.6264 4.83334 11.353C4.83334 11.073 5.06001 10.853 5.33334 10.853H13.5467L13.6467 11.6864C13.6533 11.7397 13.66 11.793 13.6667 11.8464Z" fill="#452CE8"/>
</svg>
