<svg width="16" height="16" viewBox="0 0 16 16" fill="none" xmlns="http://www.w3.org/2000/svg">
<path opacity="0.4" d="M14.1667 3.84634V5.99967C14.1667 7.52634 13.68 8.01301 12.1533 8.01301H12.0867V6.91968C12.0867 4.83968 11.16 3.913 9.08 3.913H7.98666V3.84634C7.98666 2.31968 8.47333 1.83301 10 1.83301H12.1533C13.68 1.83301 14.1667 2.31968 14.1667 3.84634Z" fill="#452CE8"/>
<path d="M11.0867 6.91976V9.07975C11.0867 10.5998 10.6 11.0864 9.08 11.0864H6.92C5.4 11.0864 4.91333 10.5998 4.91333 9.07975V6.91976C4.91333 5.39976 5.4 4.91309 6.92 4.91309H9.08C10.6 4.91309 11.0867 5.39976 11.0867 6.91976Z" fill="#452CE8"/>
<path opacity="0.4" d="M8.01333 12.0863V12.153C8.01333 13.6797 7.52666 14.1663 5.99999 14.1663H3.84666C2.32 14.1663 1.83333 13.6797 1.83333 12.153V9.99966C1.83333 8.473 2.32 7.98633 3.84666 7.98633H3.91333V9.07966C3.91333 11.1597 4.84 12.0863 6.92 12.0863H8.01333Z" fill="#452CE8"/>
</svg>
