<svg width="16" height="16" viewBox="0 0 16 16" fill="none" xmlns="http://www.w3.org/2000/svg">
<path opacity="0.4" d="M14.1667 3.84683V6.00016C14.1667 7.52683 13.68 8.0135 12.1533 8.0135H12.0867V6.92017C12.0867 4.84017 11.16 3.91349 9.08 3.91349H7.98666V3.84683C7.98666 2.32017 8.47333 1.8335 10 1.8335H12.1533C13.68 1.8335 14.1667 2.32017 14.1667 3.84683Z" fill="#452CE8"/>
<path d="M11.0867 6.91976V9.07975C11.0867 10.5998 10.6 11.0864 9.08 11.0864H6.92C5.4 11.0864 4.91333 10.5998 4.91333 9.07975V6.91976C4.91333 5.39976 5.4 4.91309 6.92 4.91309H9.08C10.6 4.91309 11.0867 5.39976 11.0867 6.91976Z" fill="#452CE8"/>
<path opacity="0.4" d="M8.01333 12.0868V12.1535C8.01333 13.6802 7.52666 14.1668 5.99999 14.1668H3.84666C2.32 14.1668 1.83333 13.6802 1.83333 12.1535V10.0002C1.83333 8.47349 2.32 7.98682 3.84666 7.98682H3.91333V9.08015C3.91333 11.1601 4.84 12.0868 6.92 12.0868H8.01333Z" fill="#452CE8"/>
</svg>
