<svg width="16" height="16" viewBox="0 0 16 16" fill="none" xmlns="http://www.w3.org/2000/svg">
<path opacity="0.4" d="M10.9934 14.6663H5.00672C2.66672 14.6663 2.16006 13.3263 2.35339 11.6863L2.95339 6.68634C3.10672 5.39301 3.33339 4.33301 5.60005 4.33301H10.4001C12.6667 4.33301 12.8934 5.39301 13.0467 6.68634L13.5467 10.853L13.6467 11.6863C13.6534 11.7397 13.6601 11.793 13.6667 11.8463C13.8067 13.413 13.2601 14.6663 10.9934 14.6663Z" fill="#452CE8"/>
<path d="M10.6667 5.83301C10.3933 5.83301 10.1667 5.60634 10.1667 5.33301V2.99967C10.1667 2.27967 9.72001 1.83301 9.00001 1.83301H7.00001C6.28001 1.83301 5.83334 2.27967 5.83334 2.99967V5.33301C5.83334 5.60634 5.60668 5.83301 5.33334 5.83301C5.06001 5.83301 4.83334 5.60634 4.83334 5.33301V2.99967C4.83334 1.72634 5.72668 0.833008 7.00001 0.833008H9.00001C10.2733 0.833008 11.1667 1.72634 11.1667 2.99967V5.33301C11.1667 5.60634 10.94 5.83301 10.6667 5.83301Z" fill="#452CE8"/>
<path d="M13.6667 11.8468C13.6467 11.8535 13.6267 11.8535 13.6067 11.8535H5.33334C5.06001 11.8535 4.83334 11.6268 4.83334 11.3535C4.83334 11.0735 5.06001 10.8535 5.33334 10.8535H13.5467L13.6467 11.6868C13.6533 11.7402 13.66 11.7935 13.6667 11.8468Z" fill="#452CE8"/>
</svg>
