<svg width="22" height="22" viewBox="0 0 22 22" fill="none" xmlns="http://www.w3.org/2000/svg">
<path d="M11 0.25C11.2668 0.25 11.5134 0.391683 11.6478 0.622097L14.989 6.34985L21.1834 7.91209C21.4402 7.97684 21.6437 8.17215 21.719 8.42598C21.7943 8.67981 21.7302 8.95455 21.5504 9.14884L17.318 13.7204L18.9122 20.836C18.9735 21.1096 18.8771 21.3946 18.6622 21.5747C18.4473 21.7549 18.1499 21.8001 17.8912 21.692L11 18.8128L4.10881 21.692C3.85009 21.8001 3.55269 21.7549 3.33782 21.5747C3.12295 21.3946 3.02652 21.1096 3.08782 20.836L4.68203 13.7204L0.449658 9.14884C0.269786 8.95455 0.205683 8.67981 0.280996 8.42598C0.356308 8.17215 0.559876 7.97684 0.816605 7.91209L7.01099 6.34985L10.3522 0.622097C10.4866 0.391683 10.7333 0.25 11 0.25Z" fill="#F6BC2F"/>
</svg>
