<svg width="44" height="14" viewBox="0 0 44 14" fill="none" xmlns="http://www.w3.org/2000/svg">
<g clip-path="url(#clip0_184_6942)">
<path d="M31.3012 1.27291C30.2878 0.910603 29.2165 0.728796 28.1378 0.736049C24.6495 0.736049 22.1859 2.45999 22.1685 4.93469C22.1467 6.75274 23.9192 7.77727 25.26 8.38471C26.6357 9.00927 27.0957 9.40283 27.0913 9.96108C27.0826 10.8102 25.9925 11.1952 24.9787 11.1952C23.5856 11.1952 22.8247 11.0049 21.6539 10.5279L21.2201 10.329L20.7252 13.178C21.5733 13.5245 23.1016 13.8218 24.68 13.8474C28.3885 13.8474 30.8129 12.1342 30.8412 9.50121C30.8717 8.04891 29.9125 6.95166 27.8936 6.04477C26.6662 5.45658 25.9053 5.06302 25.9053 4.46627C25.9053 3.93796 26.5572 3.3733 27.9198 3.3733C28.8266 3.35177 29.7279 3.5187 30.5643 3.8631L30.8914 4.00641L31.3863 1.25366L31.3012 1.27291ZM40.3534 0.967048H37.6281C36.78 0.967048 36.1412 1.19591 35.7706 2.02152L30.5295 13.6699H34.2379L34.9792 11.7599L39.5053 11.7642C39.6121 12.2112 39.9391 13.6699 39.9391 13.6699H43.2094L40.3534 0.967048ZM17.1519 0.860103H20.6859L18.4752 13.5694H14.9455L17.1519 0.855826V0.860103ZM8.18043 7.86496L8.5467 9.62955L12.0001 0.967048H15.7435L10.1818 13.6528H6.44719L3.39494 2.9113C3.3455 2.73418 3.22941 2.58206 3.07009 2.48566C1.96997 1.92813 0.804328 1.50504 -0.400757 1.22585L-0.352793 0.958491H5.3353C6.10708 0.988436 6.72843 1.22585 6.93555 2.03435L8.17825 7.87138L8.18043 7.86496ZM35.993 9.16113L37.4014 5.6063C37.3839 5.6448 37.6914 4.87266 37.8701 4.39569L38.1121 5.49294L38.9297 9.15899H35.9908L35.993 9.16113Z" fill="#323135"/>
</g>
<defs>
<clipPath id="clip0_184_6942">
<rect width="44" height="14" fill="white"/>
</clipPath>
</defs>
</svg>
